<svg width="1297" height="1083" viewBox="0 0 1297 1083" fill="none" xmlns="http://www.w3.org/2000/svg">
<path d="M722.629 598.238H713.629C680.629 816.238 725.629 895.738 710.629 1081.24H722.629C745.129 895.738 698.129 874.738 722.629 598.238Z" fill="url(#paint0_linear_0_1)" stroke="#433F00" stroke-width="2"/>
<path d="M707.761 798.869C712.939 634.334 1093.55 584.73 1296.22 628.195C1290.12 628.94 1280.1 629.975 1267.58 631.26C1106.19 667.751 744.563 1006 707.761 798.869Z" fill="url(#paint1_radial_0_1)"/>
<path d="M717.983 1064.36C689.265 958.477 553.709 751.186 241.225 769.066C371.915 883.48 527.78 1137.1 717.983 1064.36Z" fill="url(#paint2_radial_0_1)"/>
<path d="M1296.22 628.195C1154.31 621.731 746.942 1019.39 707.761 798.869C712.938 634.334 1093.55 584.73 1296.22 628.195C1273.49 630.968 1196.5 637.771 1137.79 646.481C1107.55 650.969 1099.31 653.117 1069.89 661.445C1055.35 665.563 1041.33 670.244 1028.28 675.582C1012.51 682.027 998.147 689.43 985.931 697.954C967.217 711.012 950.575 719.114 924.602 728.276M833.339 755.194C813.445 760.165 794.27 764.687 777.132 769.066C739.709 778.627 712.005 787.504 707.761 798.869M241.225 769.066C371.915 883.48 527.78 1137.1 717.983 1064.36C689.265 958.477 553.709 751.186 241.225 769.066ZM647.163 995.248C662.348 1007.93 675.47 1019.78 686.534 1030.5C700.111 1043.65 710.59 1055.12 717.983 1064.36M345.63 811.883C335.921 807.511 326.027 803.17 315.948 798.869C292.079 788.682 267.172 778.714 241.225 769.066M777.132 769.066C784.43 751.683 812.896 748.073 833.339 707.436M833.339 755.194C855.485 753.929 872.765 798.869 917.301 780.582M833.339 755.194C861.122 748.252 897.608 737.797 924.602 728.276M924.602 728.276C927.489 686.343 954.536 685.763 948.695 650.616M1028.28 675.582C1028.28 675.582 1052.37 675.582 1069.89 689.15M1069.89 661.445C1069.89 661.445 1072.81 641.063 1088.88 634.968M1137.79 646.481C1137.79 646.481 1170.65 665.445 1180.14 653.254M686.534 1030.5C658.203 1007.59 635.687 936.34 608.467 914.006M647.163 995.248C582.282 993.511 573.422 948.547 484.349 951.256M647.163 995.248C626.434 977.933 601.859 959.055 573.422 939.336M573.422 939.336C562.799 893.205 523.775 890.301 518.664 841.537M573.422 939.336C556.533 927.625 538.281 915.618 518.664 903.466M518.664 903.466C470.822 913.35 472.668 881.496 398.927 875.401M518.664 903.466C493.633 887.96 466.378 872.22 436.893 856.56M436.893 856.56C413.016 833.947 439.083 823.251 404.768 798.869M436.893 856.56C426.464 851.021 415.755 845.492 404.768 839.987M404.768 839.987C404.768 839.987 382.865 846.955 358.771 839.987M345.63 811.883C356.573 816.811 367.281 821.78 377.754 826.778C386.939 831.16 395.944 835.566 404.768 839.987M345.63 811.883C342.916 802.036 331.758 795.482 332.488 790.741M315.948 798.869C315.948 798.869 307.664 803.61 298.903 798.869M377.754 826.778C380.814 810.137 362.422 806.996 366.803 790.741" stroke="#022B00"/>
<g class="clickable" id="petal-1" filter="url(#filter0_d_0_1)">
<path d="M743.04 619.368C743.04 619.368 703.191 650.632 674.747 633.868C646.303 617.104 617.905 613.399 578.842 593.372C539.778 573.346 425.238 473.805 393.725 452.738C362.211 431.671 301.725 410.738 243.725 400.238C185.725 389.738 126.725 370.738 126.725 370.738C126.725 370.738 202.225 405.238 239.225 410.238C276.225 415.238 363.486 439.366 384.725 458.738C405.964 478.11 562.881 593.872 580.727 604.257C598.572 614.642 641.604 630.203 685.918 648.38C730.232 666.557 743.04 619.368 743.04 619.368Z" fill="url(#paint3_linear_0_1)" fill-opacity="0.91" shape-rendering="crispEdges"/>
<path d="M674.747 633.868C703.191 650.632 743.04 619.368 743.04 619.368C743.04 619.368 745.377 627.028 743.041 593.935C740.704 560.842 669.207 496.3 599.718 453.722C530.228 411.144 464.443 335.965 430.54 329.738C396.637 323.511 356.725 307.238 314.541 307.238C272.356 307.238 150.225 298.738 126.725 370.738C126.725 370.738 185.725 389.738 243.725 400.238C301.725 410.738 362.211 431.671 393.725 452.738C425.238 473.805 539.778 573.346 578.842 593.372C617.905 613.399 646.303 617.104 674.747 633.868Z" fill="url(#paint4_linear_0_1)" shape-rendering="crispEdges"/>
<path d="M702.725 676.738C722.783 658.629 743.04 619.368 743.04 619.368C743.04 619.368 730.232 666.557 685.918 648.38C641.604 630.203 598.572 614.642 580.727 604.257C562.881 593.872 405.964 478.11 384.725 458.738C363.486 439.366 276.225 415.238 239.225 410.238C202.225 405.238 126.725 370.738 126.725 370.738C118.225 420.238 198.725 472.238 213.725 486.238C228.725 500.238 290.541 537.368 314.541 560.868C338.541 584.368 387.04 578.877 430.54 593.372C474.04 607.868 489.592 634.023 527.04 633.868C564.489 633.712 682.667 694.847 702.725 676.738Z" fill="url(#paint5_linear_0_1)" shape-rendering="crispEdges"/>
<path d="M127.042 370.577C138.828 334.887 175.028 319.091 213.669 312.234C252.385 305.364 293.431 307.488 314.541 307.488C335.602 307.488 356.103 311.55 375.585 316.395C395.055 321.237 413.534 326.869 430.495 329.984C438.912 331.53 449.341 337.366 461.36 345.954C473.371 354.536 486.936 365.841 501.622 378.289C530.987 403.179 564.822 432.635 599.587 453.936C634.318 475.217 669.551 501.985 696.389 527.566C709.808 540.357 721.125 552.846 729.229 564.199C737.34 575.559 742.212 585.75 742.791 593.952C743.96 610.507 743.957 616.837 743.669 619.029C743.633 619.3 743.594 619.5 743.554 619.646C743.535 619.714 743.517 619.767 743.5 619.807C743.456 619.736 743.41 619.639 743.368 619.537C743.341 619.47 743.318 619.409 743.303 619.364C743.303 619.363 743.302 619.362 743.301 619.36L743.479 618.705L743.147 618.966L742.886 619.171L742.885 619.171L742.885 619.172C742.884 619.173 742.882 619.175 742.88 619.176C742.875 619.18 742.868 619.186 742.858 619.193C742.839 619.208 742.811 619.23 742.773 619.259C742.697 619.317 742.584 619.403 742.435 619.515C742.138 619.739 741.697 620.066 741.127 620.475C739.985 621.295 738.321 622.449 736.235 623.78C732.063 626.444 726.205 629.82 719.463 632.673C706.174 638.297 689.518 641.859 675.537 634.033L674.874 633.652C660.629 625.257 646.396 620.133 630.86 614.608C615.808 609.256 599.523 603.525 580.778 594.076L578.956 593.149C569.211 588.153 554.743 578.189 538.019 565.711C521.298 553.237 502.336 538.26 483.608 523.25C446.162 493.237 409.633 463.072 393.864 452.531C362.803 431.766 303.669 411.149 246.49 400.492L243.769 399.992C214.78 394.744 185.537 387.371 163.541 381.309C152.543 378.279 143.358 375.576 136.922 373.631C133.704 372.659 131.174 371.876 129.448 371.336C128.585 371.066 127.923 370.857 127.477 370.715C127.296 370.658 127.151 370.612 127.042 370.577ZM130.696 372.247C132.295 372.744 134.339 373.373 136.777 374.11C143.216 376.056 152.406 378.76 163.408 381.792C184.724 387.666 212.849 394.773 240.96 399.986L243.68 400.484C300.758 410.817 360.224 431.254 392.089 451.959L393.586 452.946C409.331 463.471 445.828 493.611 483.295 523.641C502.024 538.652 520.991 553.632 537.719 566.112C553.919 578.199 568.032 587.95 577.796 593.11L578.728 593.594C598.276 603.616 615.156 609.555 630.693 615.079C645.747 620.432 659.533 625.395 673.288 633.308L674.62 634.083C688.949 642.528 706.121 638.863 719.657 633.135C726.433 630.267 732.316 626.875 736.504 624.201C738.599 622.864 740.27 621.705 741.418 620.881C741.758 620.637 742.052 620.423 742.297 620.242C742.185 620.453 742.057 620.698 741.91 620.972C741.318 622.08 740.449 623.683 739.343 625.664C737.132 629.625 733.975 635.094 730.192 641.129C730.098 641.279 730.003 641.429 729.908 641.58C725.697 645.871 720.297 649.559 713.478 651.273C706.336 653.067 697.615 652.702 687.042 648.561L686.013 648.149C663.857 639.061 642.012 630.623 623.49 623.165C604.958 615.703 589.757 609.223 580.852 604.041C576.404 601.453 563.263 592.279 545.706 579.66C528.155 567.045 506.204 550.996 484.147 534.667C441.405 503.023 398.284 470.338 385.986 459.53L384.894 458.554C379.551 453.681 370.081 448.527 358.332 443.461C346.576 438.393 332.512 433.4 317.959 428.86C289.766 420.062 259.718 412.95 241.031 410.239L239.258 409.99C220.793 407.495 192.694 397.632 169.192 388.381C157.445 383.757 146.853 379.29 139.199 375.978C135.69 374.46 132.799 373.183 130.696 372.247ZM731.724 639.613C735.021 634.278 737.785 629.48 739.78 625.907C740.623 624.397 741.326 623.104 741.877 622.084C741.453 623.241 740.874 624.702 740.119 626.353C738.352 630.216 735.633 635.115 731.724 639.613ZM134.843 407.579C128.33 395.658 124.919 383.298 126.918 371.101C127.058 371.165 127.246 371.249 127.479 371.355C128.041 371.609 128.871 371.983 129.939 372.459C132.077 373.413 135.172 374.78 139.001 376.437C146.659 379.75 157.255 384.22 169.008 388.846C192.138 397.95 219.778 407.672 238.315 410.363L239.191 410.486C257.673 412.983 288.724 420.261 317.811 429.337C332.353 433.875 346.399 438.86 358.134 443.92C369.51 448.825 378.689 453.79 384.049 458.471L384.557 458.923C395.189 468.62 439.741 502.413 483.85 535.068C505.908 551.399 527.861 567.449 545.414 580.066C561.865 591.89 574.464 600.707 579.661 603.909L580.602 604.473C589.543 609.676 604.779 616.169 623.303 623.628C640.679 630.625 660.95 638.473 681.674 646.915L685.823 648.612C696.942 653.173 706.107 653.641 713.6 651.758C719.741 650.214 724.743 647.095 728.768 643.382C721.385 654.947 711.943 668.078 702.557 676.552C700.119 678.754 696.155 679.778 690.95 679.839C685.754 679.901 679.367 679.003 672.132 677.413C657.664 674.235 639.855 668.3 621.488 661.799C603.128 655.301 584.209 648.238 567.546 642.81C550.893 637.385 536.448 633.578 527.04 633.617C508.384 633.695 495.181 627.223 481.187 618.899C467.194 610.575 452.401 600.393 430.619 593.135C408.844 585.879 385.809 583.623 365.268 580.25C344.702 576.873 326.653 572.378 314.716 560.689C302.697 548.921 281.223 533.75 260.899 519.784C250.733 512.798 240.852 506.112 232.574 500.296C224.292 494.478 217.631 489.542 213.896 486.055C210.137 482.547 202.274 476.657 192.764 469.05C183.243 461.435 172.048 452.083 161.589 441.624C151.128 431.163 141.413 419.604 134.843 407.579Z" stroke="#840F0F" stroke-width="0.5" shape-rendering="crispEdges"/>
</g>
<g class="clickable" id="petal-2" filter="url(#filter1_d_0_1)">
<path d="M703.948 656.846C703.948 656.846 726.655 630.326 753.025 613.751C779.395 597.176 792.862 576.309 826.121 552.552C859.38 528.795 948.286 418.317 979.963 400.779C1011.64 383.242 1064.06 313.646 1074.39 309.331C1084.72 305.016 1290.22 302.238 1290.22 302.238C1290.22 302.238 1088.65 287.997 1070.16 296.953C1064.2 299.842 998.737 378.95 972.282 389.055C945.827 399.161 838.784 532.738 822.37 543.181C805.957 553.625 775.734 581.948 742.486 610.403C709.238 638.857 703.948 656.846 703.948 656.846Z" fill="url(#paint6_linear_0_1)" fill-opacity="0.91" shape-rendering="crispEdges"/>
<path d="M753.025 613.751C726.655 630.326 703.948 656.846 703.948 656.846C703.948 656.846 735.374 670.972 768.839 680.121C802.304 689.271 860.699 650.359 926.725 610.403C992.75 570.447 1037.87 500.053 1055.72 475.738C1073.58 451.423 1112.72 441.647 1147.72 358.738C1182.72 275.83 1229.22 237.238 1290.22 302.238C1290.22 302.238 1084.72 305.016 1074.39 309.331C1064.06 313.646 1011.64 383.242 979.963 400.779C948.286 418.317 859.38 528.795 826.121 552.552C792.862 576.309 779.395 597.176 753.025 613.751Z" fill="url(#paint7_linear_0_1)" shape-rendering="crispEdges"/>
<path d="M683.225 579.738C694.725 661.238 703.948 656.846 703.948 656.846C703.948 656.846 709.238 638.857 742.486 610.403C775.734 581.948 805.957 553.625 822.37 543.181C838.784 532.738 945.827 399.161 972.282 389.055C998.737 378.95 1064.2 299.842 1070.16 296.953C1088.65 287.997 1290.22 302.238 1290.22 302.238C1290.22 302.238 1090.28 209.989 1015.72 225.178C941.17 240.368 885.725 268.238 856.725 285.738C827.725 303.238 755.27 371.591 742.486 400.779C729.702 429.968 671.725 498.238 683.225 579.738Z" fill="url(#paint8_linear_0_1)" shape-rendering="crispEdges"/>
<path d="M1175.97 305.647C1165.73 319.928 1156.25 337.903 1147.49 358.641C1130.01 400.064 1111.49 423.207 1095.12 439.031C1086.93 446.946 1079.28 453.031 1072.55 458.667C1065.82 464.299 1060.01 469.485 1055.52 475.59C1037.65 499.924 992.567 570.265 926.595 610.188C893.574 630.171 862.483 649.88 835.46 663.453C821.949 670.239 809.466 675.486 798.277 678.465C787.087 681.445 777.212 682.151 768.905 679.88C752.184 675.309 735.969 669.493 723.934 664.82C717.918 662.483 712.946 660.432 709.479 658.966C707.746 658.233 706.388 657.646 705.464 657.242C705.002 657.04 704.648 656.884 704.41 656.778C704.392 656.77 704.375 656.762 704.358 656.755C704.371 656.74 704.384 656.724 704.398 656.708C704.57 656.511 704.827 656.219 705.162 655.841C705.833 655.084 706.822 653.984 708.091 652.613C710.63 649.871 714.289 646.042 718.772 641.694C727.459 633.27 739.231 622.908 751.927 614.745L753.157 613.963C766.366 605.66 776.343 596.283 787.162 586.026C797.982 575.768 809.652 564.622 826.266 552.755C834.602 546.801 846.409 535.425 859.915 521.455C873.424 507.48 888.648 490.892 903.818 474.503C918.99 458.112 934.109 441.92 947.414 428.729C960.311 415.944 971.481 406.002 979.335 401.425L980.084 400.998C988.032 396.598 997.268 388.942 1006.8 379.88C1016.34 370.816 1026.19 360.332 1035.37 350.265C1044.55 340.194 1053.05 330.55 1059.92 323.144C1063.35 319.442 1066.36 316.306 1068.84 313.961C1070.08 312.789 1071.18 311.818 1072.13 311.073C1072.97 310.42 1073.67 309.949 1074.25 309.669L1074.49 309.562C1074.78 309.438 1075.28 309.307 1075.97 309.176C1076.65 309.046 1077.51 308.916 1078.55 308.788C1080.61 308.531 1083.35 308.281 1086.65 308.037C1093.25 307.548 1102.12 307.085 1112.48 306.652C1130.71 305.889 1153.54 305.215 1176.7 304.644C1176.46 304.977 1176.22 305.31 1175.97 305.647ZM1015.77 225.424C1034.36 221.638 1060.79 224.544 1090.01 231.055C1119.23 237.565 1151.2 247.667 1180.85 258.247C1193.35 262.709 1205.44 267.256 1216.73 271.653C1214.15 272.49 1211.61 273.54 1209.11 274.799C1200.16 279.305 1191.68 286.451 1183.65 295.828C1158.42 294.686 1132.9 293.823 1112.35 293.751C1101.6 293.713 1092.2 293.892 1084.91 294.36C1081.27 294.594 1078.15 294.901 1075.64 295.29C1073.3 295.654 1071.49 296.092 1070.29 296.621L1070.06 296.729C1069.65 296.927 1069.02 297.431 1068.21 298.168C1067.39 298.913 1066.36 299.92 1065.15 301.15C1062.74 303.613 1059.59 306.981 1055.89 310.971C1048.5 318.953 1038.93 329.426 1028.73 340.125C1018.52 350.824 1007.68 361.745 997.732 370.621C988.09 379.227 979.323 385.886 972.815 388.574L972.192 388.822C968.842 390.102 964.248 393.32 958.757 397.96C953.258 402.607 946.836 408.7 939.828 415.756C925.811 429.868 909.434 447.844 893.374 465.825C877.311 483.811 861.569 501.798 848.812 515.947C842.434 523.021 836.806 529.132 832.26 533.8C827.991 538.184 824.694 541.277 822.632 542.707L822.236 542.97C814.011 548.204 802.337 557.908 788.577 569.848C775.669 581.049 760.922 594.22 745.431 607.546L742.324 610.213C725.685 624.453 716.035 636.08 710.542 644.154C707.796 648.191 706.09 651.34 705.069 653.483C704.558 654.555 704.219 655.375 704.007 655.929C703.901 656.205 703.827 656.416 703.779 656.558C703.77 656.586 703.761 656.611 703.754 656.633C703.708 656.637 703.645 656.64 703.565 656.628C703.345 656.597 702.981 656.474 702.486 656.066C701.49 655.244 699.997 653.292 698.13 648.76C694.4 639.701 689.222 620.45 683.473 579.703C677.732 539.022 689.331 501.631 703.975 470.749C711.297 455.309 719.378 441.5 726.431 429.723C733.478 417.955 739.51 408.195 742.715 400.879C745.895 393.617 752.801 383.895 761.843 373.112C770.879 362.333 782.035 350.512 793.699 339.054C817.034 316.132 842.38 294.686 856.854 285.952C885.835 268.463 941.254 240.606 1015.77 225.424ZM1183.24 296.31C1181.15 298.77 1179.1 301.38 1177.07 304.134C1153.78 304.708 1130.8 305.385 1112.46 306.153C1102.1 306.586 1093.22 307.049 1086.61 307.538C1083.31 307.783 1080.57 308.034 1078.49 308.292C1077.45 308.421 1076.57 308.552 1075.87 308.685C1075.35 308.784 1074.92 308.887 1074.59 308.993L1074.29 309.1C1073.62 309.383 1072.79 309.924 1071.82 310.679C1070.86 311.437 1069.74 312.42 1068.5 313.598C1066.01 315.954 1062.98 319.101 1059.55 322.804C1052.69 330.209 1044.17 339.869 1035 349.928C1025.82 359.992 1015.98 370.465 1006.46 379.517C997.227 388.289 988.308 395.714 980.586 400.141L979.842 400.561C971.888 404.964 960.369 415.183 947.063 428.374C933.749 441.573 918.623 457.773 903.452 474.163C888.279 490.556 873.06 507.138 859.555 521.108C846.469 534.645 835.007 545.713 826.764 551.777L825.975 552.349C809.33 564.238 797.638 575.405 786.818 585.663C776.335 595.602 766.676 604.681 754.117 612.76L752.891 613.54C739.685 621.84 727.402 632.627 718.423 641.335C713.933 645.689 710.268 649.526 707.725 652.274C706.453 653.648 705.462 654.75 704.788 655.509C704.739 655.564 704.692 655.617 704.647 655.668C704.852 655.161 705.137 654.502 705.52 653.698C706.53 651.579 708.224 648.453 710.956 644.436C716.25 636.653 725.443 625.529 741.112 611.918L742.649 610.593C759.272 596.366 775.146 582.165 788.904 570.227C802.24 558.655 813.586 549.21 821.726 543.894L822.505 543.392C824.586 542.068 828.073 538.817 832.618 534.15C837.171 529.474 842.805 523.357 849.184 516.282C861.94 502.133 877.69 484.136 893.747 466.158C909.806 448.177 926.176 430.21 940.183 416.108C947.187 409.057 953.597 402.975 959.08 398.341C964.398 393.847 968.823 390.735 972.061 389.411L972.371 389.289C979.033 386.745 988.116 379.875 998.065 370.994C1008.02 362.105 1018.88 351.173 1029.09 340.471C1039.3 329.768 1048.87 319.29 1056.26 311.311C1059.95 307.321 1063.1 303.957 1065.51 301.5C1066.72 300.272 1067.73 299.274 1068.54 298.538C1069.26 297.887 1069.79 297.459 1070.14 297.253L1070.27 297.178C1071.39 296.636 1073.23 296.17 1075.72 295.783C1078.2 295.397 1081.31 295.092 1084.94 294.859C1092.22 294.391 1101.6 294.212 1112.35 294.25C1132.79 294.322 1158.14 295.177 1183.24 296.31ZM1281.37 302.116C1275.73 302.2 1267.66 302.326 1257.95 302.489C1238.52 302.817 1212.51 303.299 1186.18 303.916C1183.35 303.982 1180.53 304.05 1177.71 304.119C1179.73 301.378 1181.79 298.783 1183.87 296.339C1184.95 296.388 1186.04 296.437 1187.12 296.487C1213.47 297.707 1239.24 299.207 1258.43 300.402C1268.02 301 1275.96 301.521 1281.51 301.893C1282.48 301.958 1283.37 302.019 1284.18 302.074C1283.33 302.087 1282.39 302.101 1281.37 302.116ZM1217.47 271.94C1232.66 277.864 1246.39 283.507 1257.72 288.292C1267.67 292.497 1275.77 296.04 1281.39 298.532C1284.19 299.778 1286.38 300.762 1287.86 301.434C1288.24 301.608 1288.58 301.762 1288.87 301.893C1288.61 301.875 1288.31 301.854 1287.97 301.831C1286.49 301.729 1284.32 301.58 1281.54 301.394C1276 301.022 1268.05 300.501 1258.46 299.903C1239.27 298.708 1213.49 297.207 1187.14 295.987C1186.19 295.943 1185.24 295.9 1184.28 295.857C1192.2 286.663 1200.55 279.667 1209.34 275.246C1212.01 273.903 1214.72 272.798 1217.47 271.94ZM1218.24 271.705C1227.38 269.019 1236.98 269.061 1247.07 272.224C1260.24 276.352 1274.25 285.804 1289.16 301.475C1288.85 301.336 1288.49 301.169 1288.06 300.978C1286.58 300.306 1284.4 299.322 1281.59 298.075C1275.98 295.582 1267.87 292.038 1257.92 287.832C1246.73 283.107 1233.21 277.547 1218.24 271.705Z" stroke="#840F0F" stroke-width="0.5" shape-rendering="crispEdges"/>
</g>
<g class="clickable" id="petal-3" filter="url(#filter2_d_0_1)">
<path d="M706.161 654.993C706.161 654.993 675.698 654.995 652.046 665.594C628.394 676.192 611.889 665.254 584.553 693.269C557.217 721.285 526.673 750.958 514.557 763.906C502.44 776.855 493.768 838.637 467.222 881.598C440.676 924.558 428.15 982.804 428.15 982.804C428.15 982.804 459.137 912.785 474.717 892.775C490.297 872.765 506.472 795.093 520.321 773.907C534.171 752.721 584.342 716.584 597.816 703.856C611.29 691.128 624.931 683.364 659.541 676.182C694.151 669 706.161 654.993 706.161 654.993Z" fill="url(#paint9_linear_0_1)" fill-opacity="0.91" shape-rendering="crispEdges"/>
<path d="M652.046 665.594C675.698 654.995 706.161 654.993 706.161 654.993C706.161 654.993 667.198 618.39 635.73 613.829C604.263 609.269 574.023 584.554 516.333 618.575C458.644 652.597 437.874 667.437 428.64 686.856C419.405 706.276 413.047 746.288 398.609 803.365C384.171 860.443 428.15 982.804 428.15 982.804C428.15 982.804 440.676 924.558 467.222 881.598C493.768 838.637 502.44 776.855 514.557 763.906C526.673 750.958 557.217 721.285 584.553 693.269C611.889 665.254 628.394 676.192 652.046 665.594Z" fill="url(#paint10_linear_0_1)" shape-rendering="crispEdges"/>
<path d="M724.563 676.867C712.2 656.659 706.161 654.993 706.161 654.993C706.161 654.993 694.151 669 659.541 676.182C624.931 683.364 611.29 691.128 597.816 703.856C584.342 716.584 534.171 752.721 520.321 773.907C506.472 795.093 490.297 872.765 474.717 892.775C459.137 912.785 428.15 982.804 428.15 982.804C428.15 982.804 480.05 965.25 545.07 939.822C610.091 914.395 651.989 843.293 651.989 843.293C651.989 843.293 698.13 777.251 706.132 746.192C714.134 715.134 736.927 697.075 724.563 676.867Z" fill="url(#paint11_linear_0_1)" shape-rendering="crispEdges"/>
<path d="M427.896 981.333C427.578 980.423 427.113 979.082 426.526 977.354C425.352 973.898 423.691 968.898 421.743 962.718C417.847 950.359 412.802 933.285 408.209 914.43C403.615 895.574 399.473 874.939 397.382 855.456C395.291 835.968 395.253 817.654 398.852 803.427C406.072 774.885 411.272 750.606 415.82 731.046C420.369 711.475 424.262 696.644 428.865 686.963C433.46 677.303 440.928 668.767 454.468 658.39C468.013 648.01 487.615 635.802 516.461 618.791C545.259 601.808 567.185 599.493 585.832 601.982C595.163 603.227 603.679 605.675 611.841 608.102C619.996 610.527 627.805 612.934 635.694 614.077C651.365 616.348 668.931 626.607 682.601 636.325C689.431 641.18 695.279 645.894 699.42 649.393C701.49 651.143 703.133 652.59 704.258 653.598C704.811 654.094 705.239 654.484 705.531 654.752C705.332 654.755 705.087 654.758 704.8 654.764C703.919 654.785 702.634 654.826 701.019 654.909C697.789 655.075 693.235 655.407 687.942 656.071C677.689 657.356 664.646 659.887 653.06 664.875L651.944 665.366C646.057 668.004 640.612 669.303 635.324 670.204C632.678 670.654 630.074 671.004 627.469 671.373C624.866 671.742 622.264 672.13 619.632 672.655C609.414 674.691 598.766 678.783 585.651 691.806L584.373 693.095C557.902 720.224 528.398 748.933 515.564 762.473L514.374 763.735C512.834 765.381 511.36 767.789 509.908 770.81C508.453 773.834 507.013 777.488 505.546 781.634C502.612 789.924 499.56 800.212 496.061 811.423C489.061 833.858 480.265 860.017 467.01 881.467C453.722 902.972 443.947 928.294 437.494 948.234C434.267 958.205 431.87 966.833 430.28 972.969C429.485 976.037 428.892 978.482 428.497 980.16C428.326 980.889 428.194 981.474 428.097 981.902C428.039 981.736 427.971 981.546 427.896 981.333ZM428.984 980.274C429.378 978.599 429.97 976.159 430.764 973.095C432.352 966.967 434.746 958.348 437.969 948.388C444.215 929.088 453.571 904.76 466.202 883.752L467.435 881.73C480.726 860.22 489.539 834.005 496.54 811.572C500.042 800.349 503.088 790.079 506.017 781.801C507.482 777.662 508.915 774.028 510.358 771.028C511.712 768.212 513.069 765.965 514.461 764.384L514.739 764.077C526.098 751.939 553.641 725.112 579.572 698.713L584.732 693.444C598.363 679.474 609.277 675.228 619.729 673.146C622.347 672.624 624.938 672.238 627.539 671.869C630.139 671.5 632.753 671.148 635.408 670.696C640.389 669.848 645.524 668.645 651.04 666.305L652.148 665.822C663.942 660.537 677.443 657.891 688.004 656.567C693.283 655.905 697.823 655.574 701.044 655.409C702.654 655.326 703.934 655.285 704.812 655.265C705.116 655.257 705.372 655.254 705.577 655.251C705.523 655.306 705.466 655.367 705.401 655.432C705.009 655.825 704.41 656.396 703.581 657.104C701.925 658.521 699.353 660.488 695.701 662.68C688.397 667.065 676.768 672.352 659.49 675.937C642.176 679.53 630.092 683.272 620.646 687.713C611.787 691.879 605.256 696.657 598.911 702.493L597.644 703.674C590.914 710.031 575.023 722.231 559.049 735.518C551.068 742.156 543.072 749.061 536.205 755.633C529.554 761.997 523.951 768.058 520.444 773.268L520.112 773.77C516.631 779.095 513.014 787.949 509.307 798.521C505.598 809.1 501.79 821.425 497.929 833.707C494.068 845.991 490.155 858.231 486.234 868.651C482.31 879.078 478.389 887.652 474.52 892.621C466.711 902.651 455.058 925.185 445.367 945.184C440.519 955.189 436.157 964.569 433.008 971.447C431.434 974.886 430.162 977.7 429.284 979.654C429.169 979.91 429.062 980.152 428.961 980.378C428.969 980.344 428.976 980.309 428.984 980.274ZM428.73 982.114C428.961 981.597 429.302 980.835 429.741 979.859C430.618 977.905 431.889 975.093 433.463 971.655C436.611 964.779 440.97 955.403 445.816 945.403C455.514 925.39 467.144 902.909 474.914 892.929C478.835 887.893 482.778 879.254 486.702 868.827C490.628 858.393 494.545 846.14 498.406 833.857C502.268 821.571 506.074 809.256 509.779 798.687C513.371 788.443 516.861 779.864 520.207 774.548L520.53 774.043C523.977 768.772 529.692 762.557 536.551 755.994C543.406 749.434 551.392 742.537 559.369 735.902C574.813 723.056 590.248 711.174 597.329 704.652L597.987 704.038C604.709 697.688 611.467 692.581 620.858 688.165C629.667 684.023 640.801 680.485 656.409 677.102L659.592 676.426C676.923 672.83 688.605 667.523 695.959 663.109C699.635 660.902 702.229 658.919 703.906 657.485C704.745 656.767 705.354 656.187 705.754 655.786C705.955 655.585 706.103 655.429 706.201 655.322C706.213 655.31 706.223 655.298 706.233 655.288C706.264 655.3 706.301 655.314 706.342 655.332C706.52 655.412 706.795 655.552 707.166 655.782C707.908 656.243 709.035 657.072 710.552 658.533C713.587 661.456 718.175 666.906 724.35 676.998C730.461 686.987 727.904 696.445 722.758 707.354C717.621 718.244 709.899 730.57 705.89 746.13C701.9 761.617 688.385 785.86 675.846 806.259C669.581 816.452 663.565 825.675 659.116 832.35C656.891 835.688 655.058 838.388 653.781 840.253C653.143 841.186 652.644 841.911 652.304 842.402C652.134 842.647 652.004 842.834 651.917 842.96C651.873 843.022 651.84 843.07 651.818 843.102C651.807 843.117 651.798 843.129 651.793 843.137C651.79 843.141 651.788 843.145 651.787 843.147C651.786 843.148 651.785 843.149 651.785 843.149C651.785 843.15 651.789 843.153 651.99 843.293L651.785 843.15L651.779 843.158L651.774 843.166C651.774 843.167 651.772 843.168 651.772 843.169C651.771 843.171 651.769 843.175 651.767 843.179C651.762 843.188 651.754 843.2 651.744 843.217C651.723 843.251 651.693 843.301 651.652 843.369C651.571 843.503 651.451 843.704 651.29 843.967C650.968 844.493 650.487 845.268 649.851 846.264C648.58 848.255 646.691 851.129 644.221 854.657C639.282 861.714 632.019 871.388 622.725 881.856C604.135 902.797 577.437 926.897 544.979 939.59C512.472 952.303 483.244 963.046 462.144 970.613C451.593 974.396 443.075 977.385 437.194 979.428C434.254 980.449 431.972 981.234 430.427 981.764C429.654 982.028 429.065 982.229 428.669 982.364C428.649 982.371 428.63 982.378 428.611 982.385C428.647 982.304 428.686 982.213 428.73 982.114Z" stroke="#840F0F" stroke-width="0.5" shape-rendering="crispEdges"/>
</g>
<g class="clickable" id="petal-4" filter="url(#filter3_d_0_1)">
<path d="M714.573 656.459C714.573 656.459 708.425 622.092 712.294 591.186C716.164 560.28 708.541 536.644 711.214 495.859C713.887 455.075 684.677 316.306 691.162 280.684C697.647 245.062 676.976 160.419 680.177 149.693C683.378 138.966 703.029 43.7382 703.029 43.7382C703.029 43.7382 672.695 125.146 667.921 145.126C666.382 151.569 686.155 252.332 677.224 279.206C668.294 306.079 703.897 473.512 701.586 492.829C699.276 512.145 702.059 553.472 703.029 597.223C704 640.973 714.573 656.459 714.573 656.459Z" fill="url(#paint12_linear_0_1)" fill-opacity="0.91" shape-rendering="crispEdges"/>
<path d="M712.294 591.186C708.425 622.092 714.573 656.459 714.573 656.459C714.573 656.459 745.404 641.081 773.677 620.973C801.949 600.865 844.341 520.141 855.225 443.738C866.109 367.336 862.736 280.456 855.225 251.238C847.714 222.02 817.225 171.648 810.725 149.693C804.225 127.738 770.137 55.8275 703.029 43.7382C703.029 43.7382 683.378 138.966 680.177 149.693C676.976 160.419 697.647 245.062 691.162 280.684C684.677 316.306 713.887 455.075 711.214 495.859C708.541 536.644 716.164 560.28 712.294 591.186Z" fill="url(#paint13_linear_0_1)" shape-rendering="crispEdges"/>
<path d="M673.557 656.782C697.209 661.996 714.573 656.459 714.573 656.459C714.573 656.459 704 640.973 703.029 597.223C702.059 553.472 699.276 512.145 701.586 492.829C703.897 473.512 668.294 306.079 677.224 279.206C686.155 252.332 666.382 151.569 667.921 145.126C672.695 125.146 703.029 43.7382 703.029 43.7382C622.137 78.8275 578.725 69.2381 542.225 181.738C505.725 294.238 510.969 290.528 516.225 356.238C521.481 421.948 573.751 534.147 588.247 562.524C602.743 590.901 649.905 651.567 673.557 656.782Z" fill="url(#paint14_linear_0_1)" shape-rendering="crispEdges"/>
<path d="M703.224 44.0296C736.578 50.1161 761.751 71.0187 779.409 93.1714C797.111 115.378 807.243 138.815 810.485 149.764C813.743 160.768 823.006 178.878 832.372 197.852C841.749 216.849 851.235 236.722 854.983 251.301C858.731 265.879 861.452 294.878 861.873 329.797C862.294 364.709 860.417 405.517 854.978 443.703C849.54 481.874 836.23 521.131 820.746 553.358C813.005 569.47 804.721 583.822 796.61 595.398C788.497 606.978 780.566 615.766 773.532 620.769C759.406 630.816 744.637 639.683 733.4 646.039C727.781 649.216 723.045 651.766 719.715 653.521C718.05 654.398 716.736 655.077 715.839 655.536C715.39 655.766 715.045 655.94 714.813 656.058C714.795 656.067 714.778 656.075 714.761 656.084C714.758 656.064 714.754 656.044 714.751 656.023C714.707 655.764 714.643 655.381 714.563 654.882C714.403 653.884 714.177 652.422 713.92 650.571C713.404 646.87 712.758 641.613 712.231 635.391C711.212 623.334 710.647 607.66 712.369 592.665L712.542 591.217C714.48 575.737 713.539 562.078 712.452 547.209C711.398 532.803 710.205 517.253 711.345 497.773L711.463 495.876C712.133 485.654 710.806 469.312 708.545 450.012C706.283 430.708 703.084 408.421 700.006 386.301C696.927 364.179 693.968 342.224 692.184 323.574C690.455 305.497 689.833 290.556 691.263 281.579L691.408 280.729C693.035 271.791 692.957 259.796 691.981 246.679C691.004 233.557 689.127 219.295 687.149 205.816C685.169 192.331 683.089 179.643 681.703 169.642C681.01 164.644 680.491 160.325 680.246 156.923C680.123 155.221 680.069 153.753 680.094 152.545C680.117 151.486 680.202 150.64 680.35 150.017L680.417 149.764C682.021 144.387 687.737 117.884 693.048 92.7447C695.704 80.1705 698.261 67.9316 700.154 58.8362C701.1 54.2885 701.88 50.5265 702.424 47.9016C702.695 46.5893 702.908 45.5612 703.053 44.8611C703.125 44.5112 703.18 44.243 703.218 44.0625C703.22 44.0513 703.221 44.0401 703.224 44.0296ZM542.462 181.815C560.702 125.597 580.654 99.9295 606.113 83.9208C618.852 75.9106 632.981 70.3114 648.995 64.5187C664.863 58.7791 682.579 52.8489 702.591 44.1992C702.551 44.3074 702.505 44.4312 702.453 44.5699C702.23 45.1711 701.902 46.0563 701.482 47.1889C700.643 49.454 699.44 52.7122 697.981 56.6842C695.062 64.6288 691.121 75.4301 687.03 86.8556C678.852 109.699 670.069 135.061 667.678 145.068C667.572 145.512 667.563 146.319 667.62 147.412C667.679 148.517 667.808 149.948 667.996 151.662C668.373 155.09 668.985 159.663 669.734 165.049C671.232 175.824 673.28 189.86 675.096 204.535C676.913 219.21 678.499 234.519 679.072 247.835C679.646 261.164 679.203 272.457 676.987 279.127C675.856 282.53 675.437 288.123 675.552 295.312C675.666 302.51 676.316 311.339 677.34 321.231C679.386 341.016 682.928 365.074 686.676 388.89C690.425 412.711 694.378 436.284 697.251 455.118C698.688 464.533 699.854 472.759 700.588 479.234C701.324 485.719 701.623 490.418 701.338 492.799C700.18 502.479 700.3 517.659 700.828 535.87C701.324 552.953 702.179 572.706 702.684 593.134L702.78 597.228C703.265 619.123 706.154 633.954 708.925 643.318C710.311 648 711.667 651.315 712.679 653.462C713.185 654.535 713.605 655.317 713.9 655.832C714.014 656.032 714.111 656.191 714.185 656.312C714.063 656.347 713.906 656.394 713.715 656.446C713.198 656.586 712.431 656.781 711.436 656.999C709.447 657.434 706.547 657.961 702.909 658.326C695.633 659.057 685.406 659.138 673.61 656.537C667.763 655.248 660.421 650.516 652.451 643.655C644.49 636.802 635.933 627.853 627.658 618.176C611.107 598.82 595.706 576.575 588.47 562.41C581.225 548.228 564.537 513.092 549.004 473.29C533.468 433.481 519.099 389.034 516.474 356.219C513.844 323.342 511.224 307.881 513.814 286.565C516.405 265.244 524.211 238.071 542.462 181.815ZM701.934 47.8005C701.391 50.4252 700.61 54.1869 699.664 58.7344C697.771 67.8294 695.216 80.068 692.559 92.6415C687.244 117.798 681.534 144.271 679.937 149.621C679.728 150.324 679.62 151.31 679.594 152.535C679.568 153.764 679.623 155.249 679.747 156.958C679.994 160.377 680.514 164.709 681.208 169.711C682.594 179.71 684.676 192.42 686.653 205.889C688.632 219.364 690.507 233.612 691.482 246.715C692.427 259.413 692.526 271.019 691.063 279.798L690.916 280.639C689.288 289.584 689.902 304.97 691.686 323.622C693.471 342.284 696.432 364.249 699.511 386.37C702.59 408.493 705.787 430.773 708.048 450.071C710.239 468.772 711.548 484.652 711.021 494.872L710.964 495.843C709.627 516.254 710.865 532.375 711.953 547.245C713.007 561.652 713.918 574.878 712.218 589.714L712.046 591.155C710.109 606.632 710.679 622.97 711.733 635.433C712.26 641.665 712.908 646.932 713.425 650.64C713.683 652.494 713.909 653.96 714.07 654.962C714.081 655.035 714.093 655.106 714.104 655.174C713.841 654.693 713.512 654.055 713.132 653.249C712.131 651.125 710.783 647.835 709.404 643.177C706.733 634.151 703.944 619.992 703.332 599.245L703.28 597.217C702.794 575.342 701.855 554.064 701.327 535.855C700.799 517.637 700.681 502.495 701.834 492.858C702.127 490.41 701.819 485.651 701.085 479.178C700.35 472.693 699.182 464.459 697.745 455.042C694.872 436.21 690.916 412.623 687.169 388.812C683.422 364.997 679.882 340.95 677.837 321.179C676.814 311.294 676.166 302.482 676.052 295.304C675.941 288.342 676.334 282.946 677.36 279.602L677.461 279.284C679.71 272.517 680.145 261.138 679.572 247.814C678.997 234.478 677.41 219.153 675.592 204.473C673.775 189.793 671.726 175.751 670.229 164.981C669.48 159.595 668.869 155.028 668.494 151.608C668.306 149.898 668.177 148.477 668.12 147.386C668.068 146.42 668.075 145.736 668.135 145.338L668.165 145.184C670.548 135.211 679.318 109.879 687.501 87.0236C691.591 75.5998 695.532 64.7999 698.45 56.8562C699.909 52.8846 701.113 49.6271 701.951 47.3623C702.009 47.2075 702.064 47.0569 702.117 46.9115C702.06 47.1912 701.999 47.4879 701.934 47.8005Z" stroke="#840F0F" stroke-width="0.5" shape-rendering="crispEdges"/>
</g>
<g class="clickable" id="petal-5" filter="url(#filter4_d_0_1)">
<path d="M704.873 655.215C704.873 655.215 660.808 664.15 623.9 661.267C586.992 658.384 555.704 668.473 506.295 667.494C456.886 666.516 277.691 707.689 235.737 702.013C193.783 696.337 106.866 665.328 94.5942 662.169C82.322 659.01 18.7248 641.238 18.7248 641.238C34.7248 657.238 71.3913 669.596 94.5941 674.1C102.076 675.553 199.402 709.309 229.885 718.283C260.367 727.256 476.682 677.161 499.78 678.837C522.879 680.514 574.534 675.125 628.647 671.716C682.76 668.306 704.873 655.215 704.873 655.215Z" fill="url(#paint15_linear_0_1)" fill-opacity="0.91" shape-rendering="crispEdges"/>
<path d="M623.9 661.267C660.808 664.15 704.873 655.215 704.873 655.215C704.873 655.215 694.872 620.197 678.311 588.4C661.75 556.603 559.423 527.062 468.564 518.403C377.705 509.744 304.895 488.965 266.771 499.215C228.647 509.466 153.225 498.076 100.725 543.238C48.2248 588.4 48.2248 558.738 18.7248 641.238C18.7248 641.238 82.322 659.01 94.5942 662.169C106.866 665.328 193.783 696.337 235.737 702.013C277.691 707.689 456.886 666.516 506.295 667.494C555.704 668.473 586.992 658.384 623.9 661.267Z" fill="url(#paint16_linear_0_1)" shape-rendering="crispEdges"/>
<path d="M693.403 702.849C706.662 675.099 704.873 655.215 704.873 655.215C704.873 655.215 682.76 668.306 628.647 671.716C574.534 675.125 522.879 680.514 499.78 678.837C476.682 677.161 260.367 727.256 229.885 718.283C199.402 709.309 102.076 675.553 94.5941 674.1C71.3913 669.596 34.7248 657.238 18.7248 641.238C18.7248 641.238 68.6789 619.944 163.725 662.169C258.771 704.394 329.089 721.578 390.725 710.238C452.36 698.898 495.932 753.296 535.042 734.975C574.153 716.654 680.144 730.599 693.403 702.849Z" fill="url(#paint17_linear_0_1)" shape-rendering="crispEdges"/>
<path d="M19.1467 640.805C33.7766 599.953 41.1127 586.885 51.2595 578.429C56.3664 574.173 62.1814 571.086 70.0438 566.215C77.8966 561.35 87.7516 554.728 100.888 543.428C127.084 520.893 159.008 512.459 189.173 508.382C204.256 506.344 218.889 505.396 232.146 504.317C245.396 503.237 257.28 502.026 266.836 499.457C276.33 496.904 287.999 496.28 301.596 496.921C315.19 497.562 330.695 499.467 347.856 501.965C382.171 506.959 423.103 514.321 468.541 518.652C513.954 522.98 562.233 532.527 601.223 544.963C620.719 551.181 637.885 558.12 651.207 565.486C664.539 572.856 673.984 580.635 678.089 588.516C686.362 604.401 692.999 621.093 697.567 633.817C699.85 640.177 701.617 645.545 702.813 649.322C703.41 651.211 703.865 652.702 704.171 653.72C704.323 654.23 704.44 654.621 704.517 654.884C704.532 654.936 704.544 654.982 704.557 655.024C704.49 655.037 704.411 655.052 704.321 655.069C703.99 655.134 703.499 655.228 702.861 655.347C701.585 655.586 699.722 655.924 697.37 656.32C692.665 657.112 686.007 658.137 678.197 659.074C663.062 660.888 643.609 662.363 625.652 661.144L623.92 661.017C605.439 659.574 588.368 661.379 569.759 663.418C551.728 665.394 532.245 667.592 508.602 667.283L506.3 667.244C493.924 666.999 473.439 669.393 449.039 673.026C424.633 676.66 396.287 681.538 368.179 686.269C340.069 691 312.197 695.583 288.731 698.629C281.724 699.538 275.113 700.31 269.008 700.908C237.353 692.259 202.657 679.192 163.826 661.941C116.273 640.815 79.9884 635.574 55.5818 635.619C43.379 635.642 34.1471 636.987 27.9622 638.327C24.8699 638.997 22.5393 639.665 20.9802 640.167C20.2008 640.418 19.6144 640.628 19.2217 640.775C19.1958 640.785 19.171 640.796 19.1467 640.805ZM315.63 710.721C332.274 707.964 350 704.792 367.647 701.542C398.039 695.945 428.191 690.121 452.195 685.801C464.197 683.641 474.657 681.858 482.838 680.667C490.517 679.549 496.163 678.957 499.192 679.058L499.762 679.087C511.332 679.926 530.04 678.997 552.601 677.434C573.762 675.967 598.317 673.942 623.598 672.29L628.663 671.965C655.737 670.259 674.812 666.131 687.124 662.426C693.279 660.574 697.744 658.828 700.672 657.543C702.136 656.901 703.216 656.374 703.93 656.007C704.236 655.85 704.474 655.722 704.648 655.627C704.655 655.762 704.666 655.931 704.674 656.133C704.697 656.727 704.714 657.607 704.695 658.751C704.655 661.039 704.466 664.382 703.863 668.591C702.656 677.008 699.795 688.891 693.177 702.741C691.55 706.146 688.492 708.931 684.276 711.226C680.06 713.521 674.703 715.318 668.509 716.755C656.118 719.632 640.422 721.062 623.9 722.198C607.385 723.334 590.044 724.177 574.394 725.88C558.748 727.583 544.754 730.149 534.936 734.749C525.224 739.298 515.229 739.339 504.715 737.001C494.194 734.66 483.177 729.944 471.427 724.995C447.946 715.105 421.58 704.307 390.68 709.992C367.223 714.308 342.503 714.488 315.63 710.721ZM270.364 701.276C276.112 700.697 282.286 699.969 288.795 699.124C312.272 696.077 340.153 691.492 368.262 686.762C396.373 682.031 424.712 677.154 449.113 673.521C473.519 669.887 493.962 667.5 506.29 667.744C531.013 668.234 551.202 665.954 569.813 663.915C587.845 661.939 604.388 660.19 622.157 661.391L623.88 661.516C642.358 662.959 662.62 661.444 678.257 659.57C686.076 658.633 692.742 657.606 697.452 656.812C699.808 656.416 701.674 656.078 702.953 655.839C703.064 655.819 703.171 655.798 703.273 655.779C702.587 656.121 701.657 656.565 700.472 657.085C697.563 658.362 693.116 660.101 686.98 661.948C675.09 665.525 656.853 669.505 631.143 671.299L628.631 671.466C601.576 673.171 575.125 675.371 552.566 676.935C530.702 678.45 512.498 679.366 500.9 678.661L499.799 678.588C496.879 678.376 490.943 678.981 482.765 680.171C474.576 681.364 464.109 683.149 452.106 685.309C428.103 689.629 397.94 695.454 367.556 701.05C349.356 704.402 331.074 707.671 313.983 710.486C300.063 708.459 285.564 705.379 270.364 701.276ZM21.4142 642.249C23.1772 642.741 25.7092 643.448 28.7862 644.305C34.9402 646.021 43.2737 648.341 51.9904 650.76C67.2433 654.993 83.674 659.529 91.6561 661.655L94.5314 662.411C97.5893 663.198 105.311 665.725 115.847 669.167C126.377 672.607 139.705 676.957 153.961 681.386C181.575 689.965 212.691 698.846 233.702 701.976L235.703 702.26C243.072 703.257 254.64 702.815 268.966 701.415C284.083 705.542 298.511 708.663 312.368 710.752C301.512 712.53 291.157 714.119 281.634 715.421C269.173 717.125 258.14 718.339 249.272 718.846C240.67 719.338 234.138 719.162 230.317 718.144L229.956 718.043C214.72 713.558 182.773 702.877 153.693 693.134C139.155 688.263 125.335 683.626 114.681 680.117C109.355 678.362 104.819 676.889 101.38 675.809C97.9494 674.731 95.5943 674.04 94.6419 673.855C83.0556 671.606 68.1028 667.395 54.0509 661.748C40.3942 656.26 27.6151 649.428 19.5959 641.741C20.0505 641.868 20.6625 642.039 21.4142 642.249ZM19.5169 641.201C19.8989 641.06 20.4377 640.868 21.1336 640.644C22.6776 640.147 24.9926 639.482 28.0685 638.815C34.2202 637.482 43.4175 636.142 55.5837 636.119C79.9155 636.074 116.131 641.299 163.623 662.398C201.948 679.424 236.261 692.382 267.612 701.042C254.538 702.281 243.885 702.688 236.775 701.889L235.77 701.765C214.817 698.93 182.619 689.766 154.109 680.908C139.857 676.481 126.533 672.131 116.003 668.691C106.137 665.468 98.7137 663.04 95.288 662.096L94.6563 661.926C88.5229 660.348 69.559 655.116 52.1247 650.278C43.4082 647.859 35.0744 645.539 28.9204 643.824C25.8436 642.966 23.3114 642.259 21.5485 641.767C20.6721 641.522 19.9855 641.332 19.5169 641.201Z" stroke="#840F0F" stroke-width="0.5" shape-rendering="crispEdges"/>
</g>
<g class="clickable" id="petal-6" filter="url(#filter5_d_0_1)">
<path d="M703.415 662.736C703.415 662.736 728.212 694.737 842.207 753.663C956.202 812.588 934.43 800.536 976.405 814.648C1018.38 828.76 1042.48 823.698 1085.9 860.109C1129.32 896.52 1191.03 917.405 1191.39 933.35C1191.76 949.295 1193.39 941.447 1193.39 941.447C1193.39 941.447 1193.53 962.306 1191.39 933.35C1160.79 870.538 1093.18 844.795 1084.94 837.915C1076.7 831.035 978.327 796.139 941.66 788.279C904.993 780.418 871.157 741.226 822.793 724.956C774.429 708.685 703.415 662.736 703.415 662.736Z" fill="url(#paint18_linear_0_1)" fill-opacity="0.91" shape-rendering="crispEdges"/>
<path d="M842.207 753.663C728.212 694.737 703.415 662.736 703.415 662.736C703.415 662.736 710.392 615.681 738.304 590.192C766.215 564.703 764.126 554.529 809.364 551.285C854.602 548.041 912.416 551.546 933.419 584.805C954.421 618.064 1079 650.285 1116.93 715.364C1154.86 780.443 1193.39 941.447 1193.39 941.447C1193.39 941.447 1191.76 949.295 1191.39 933.35C1191.03 917.405 1129.32 896.52 1085.9 860.109C1042.48 823.698 1018.38 828.76 976.405 814.648C934.43 800.536 956.202 812.588 842.207 753.663Z" fill="url(#paint19_linear_0_1)" shape-rendering="crispEdges"/>
<path d="M780.452 610.26C749.189 618.311 703.415 662.736 703.415 662.736C703.415 662.736 774.429 708.685 822.793 724.956C871.157 741.226 904.993 780.418 941.66 788.279C978.327 796.139 1076.7 831.035 1084.94 837.915C1093.18 844.795 1160.79 870.538 1191.39 933.35C1193.53 962.306 1193.39 941.447 1193.39 941.447C1193.39 941.447 1199.7 968.335 1207.84 924.25C1215.99 880.166 1137.87 888.511 1104.99 806.418C1072.1 724.325 929.539 696.704 900.261 668.915C870.983 641.127 811.715 602.21 780.452 610.26Z" fill="url(#paint20_linear_0_1)" shape-rendering="crispEdges"/>
<path d="M1177.78 882.891C1175.87 881.746 1173.92 880.578 1171.93 879.374C1149.32 865.695 1121.63 847.293 1105.22 806.325C1088.74 765.18 1044.79 737.717 1001.38 717.077C979.669 706.754 958.064 698.125 940.077 690.349C931.08 686.46 922.987 682.785 916.232 679.214C909.473 675.642 904.068 672.184 900.433 668.734C885.779 654.825 863.625 638.136 841.22 625.929C830.018 619.825 818.746 614.838 808.313 611.881C797.883 608.924 788.266 607.99 780.389 610.018C764.701 614.058 745.406 627.21 730.055 639.321C722.375 645.382 715.672 651.19 710.889 655.483C708.498 657.629 706.586 659.397 705.272 660.629C704.626 661.233 704.126 661.71 703.783 662.038C703.84 661.702 703.915 661.256 704.015 660.71C704.26 659.376 704.64 657.442 705.185 655.041C706.273 650.238 708.015 643.569 710.628 636.104C715.856 621.171 724.561 603.08 738.472 590.377C745.457 583.998 750.566 578.577 755 573.99C759.437 569.4 763.192 565.653 767.481 562.6C776.047 556.505 786.778 553.155 809.382 551.534C831.99 549.913 857.728 549.98 880.43 554.602C903.138 559.225 922.761 568.394 933.208 584.938C935.856 589.132 940.125 593.295 945.626 597.494C951.129 601.694 957.877 605.942 965.494 610.302C980.723 619.019 999.463 628.205 1018.71 638.373C1037.96 648.545 1057.73 659.707 1075.06 672.388C1092.38 685.07 1107.25 699.262 1116.71 715.49C1135.66 748 1154.77 804.493 1169.14 852.881C1172.26 863.376 1175.15 873.489 1177.78 882.891ZM1189.93 928.562C1189.58 928.032 1189.18 927.497 1188.73 926.959C1188.43 926.602 1188.11 926.244 1187.78 925.882C1172.38 898.287 1149.96 878.403 1129.92 864.453C1119.03 856.872 1108.84 851.041 1100.86 846.677C1096.87 844.491 1093.45 842.684 1090.74 841.196C1088.21 839.801 1086.35 838.709 1085.3 837.885L1085.1 837.723C1084.04 836.838 1081.57 835.527 1078.02 833.902C1074.47 832.272 1069.8 830.312 1064.32 828.13C1053.37 823.767 1039.15 818.513 1024.04 813.229C993.836 802.662 960.063 791.969 941.713 788.035C923.435 784.116 905.851 772.385 886.752 759.563C867.669 746.752 847.092 732.866 822.873 724.718C798.715 716.591 768.888 701.047 745.091 687.527C733.194 680.768 722.809 674.517 715.398 669.957C711.692 667.676 708.73 665.818 706.694 664.53C705.677 663.887 704.89 663.385 704.359 663.045C704.13 662.899 703.95 662.781 703.817 662.696C703.895 662.621 703.993 662.528 704.109 662.416C704.452 662.089 704.958 661.609 705.614 660.994C706.925 659.765 708.834 657.999 711.222 655.855C715.999 651.567 722.694 645.766 730.365 639.714C745.717 627.6 764.94 614.513 780.514 610.503C788.269 608.506 797.785 609.417 808.176 612.362C818.562 615.306 829.8 620.275 840.982 626.368C863.346 638.553 885.465 655.217 900.089 669.096C903.774 672.594 909.228 676.077 915.998 679.656C922.772 683.235 930.878 686.918 939.878 690.809C957.883 698.592 979.464 707.211 1001.16 717.528C1044.58 738.169 1088.35 765.562 1104.75 806.511C1121.23 847.635 1149.04 866.107 1171.67 879.801C1173.83 881.103 1175.93 882.363 1177.97 883.593C1181.31 895.581 1184.2 906.391 1186.53 915.337C1187.85 920.379 1188.99 924.828 1189.93 928.562ZM1186.45 924.55C1184.92 923.107 1183.1 921.625 1181.01 920.098C1174.48 915.319 1165.36 910.068 1154.92 904.187C1134.34 892.601 1108.57 878.551 1087.08 860.767L1086.06 859.917C1042.59 823.466 1018.38 828.496 976.484 814.41C955.47 807.345 950.454 806.843 936.413 800.731C924.125 795.383 904.944 785.746 862.154 763.682L842.322 753.441C785.334 723.983 750.648 701.258 730.213 685.903C719.995 678.225 713.341 672.389 709.243 668.476C707.195 666.519 705.785 665.044 704.888 664.058C704.828 663.992 704.772 663.927 704.717 663.865C705.181 664.161 705.753 664.527 706.428 664.954C708.465 666.242 711.428 668.102 715.136 670.383C722.551 674.946 732.942 681.2 744.844 687.962C768.645 701.484 798.508 717.049 822.714 725.192C846.859 733.315 867.382 747.161 886.474 759.979C905.55 772.786 923.218 784.581 941.608 788.523C959.925 792.45 993.671 803.135 1023.88 813.701C1038.98 818.983 1053.19 824.234 1064.14 828.594C1069.61 830.774 1074.27 832.731 1077.82 834.356C1081.15 835.885 1083.47 837.11 1084.57 837.945L1084.78 838.107C1085.83 838.985 1087.81 840.152 1090.5 841.634C1093.2 843.117 1096.65 844.939 1100.62 847.115C1108.6 851.476 1118.77 857.297 1129.64 864.864C1149.25 878.522 1171.14 897.861 1186.45 924.55ZM1201.92 945.428C1201.06 947.255 1200.26 948.324 1199.54 948.864C1199.18 949.132 1198.85 949.266 1198.55 949.304C1198.25 949.342 1197.95 949.288 1197.66 949.154C1197.08 948.881 1196.53 948.282 1196.02 947.495C1195.52 946.713 1195.09 945.776 1194.73 944.868C1194.38 943.962 1194.1 943.091 1193.91 942.447C1193.82 942.125 1193.75 941.86 1193.7 941.676C1193.68 941.584 1193.66 941.512 1193.65 941.463C1193.65 941.457 1193.64 941.45 1193.64 941.444L1193.64 941.444L1193.63 941.389L1193.63 941.39L1193.61 941.392C1193.63 941.387 1193.63 941.388 1193.63 941.387C1193.63 941.386 1193.63 941.384 1193.63 941.381C1193.63 941.377 1193.62 941.369 1193.62 941.359C1193.62 941.34 1193.61 941.31 1193.6 941.272C1193.58 941.194 1193.55 941.078 1193.52 940.925C1193.44 940.618 1193.33 940.162 1193.19 939.564C1192.9 938.369 1192.46 936.607 1191.9 934.342C1191.82 934.011 1191.73 933.67 1191.64 933.318C1191.62 932.301 1191.35 931.272 1190.87 930.229C1189.84 926.157 1188.55 921.085 1187.02 915.21C1184.71 906.39 1181.87 895.756 1178.59 883.969C1187.04 889.062 1194.39 893.687 1199.66 898.962C1202.98 902.293 1205.47 905.872 1206.88 909.978C1208.28 914.083 1208.61 918.731 1207.6 924.205C1205.56 935.222 1203.64 941.781 1201.92 945.428ZM1190.59 931.178C1190.06 930.129 1189.52 929.092 1188.97 928.065C1189.56 928.858 1190.04 929.634 1190.39 930.393C1190.46 930.659 1190.53 930.92 1190.59 931.178ZM1192.63 942.966C1192.6 943.026 1192.57 943.067 1192.54 943.096C1192.51 943.05 1192.47 942.973 1192.42 942.847C1192.26 941.138 1192.08 938.986 1191.87 936.308C1192.22 937.703 1192.49 938.835 1192.7 939.683C1192.85 940.28 1192.96 940.735 1193.03 941.042C1193.07 941.195 1193.1 941.311 1193.11 941.389C1193.12 941.413 1193.13 941.433 1193.13 941.449C1193.13 941.458 1193.13 941.467 1193.12 941.476C1193.11 941.529 1193.09 941.604 1193.07 941.694C1193.03 941.874 1192.96 942.112 1192.89 942.347C1192.81 942.586 1192.72 942.809 1192.63 942.966ZM1193 947.722C1192.96 947.473 1192.91 947.167 1192.86 946.798C1192.75 946.027 1192.63 944.988 1192.5 943.626C1192.5 943.626 1192.51 943.627 1192.51 943.627C1192.66 943.638 1192.78 943.561 1192.86 943.487C1192.94 943.411 1193.01 943.313 1193.07 943.213C1193.09 943.174 1193.11 943.131 1193.13 943.088C1193.13 943.446 1193.13 943.841 1193.13 944.251C1193.11 945.489 1193.07 946.846 1193 947.722Z" stroke="#840F0F" stroke-width="0.5" shape-rendering="crispEdges"/>
</g>
<path d="M636.153 299.774C658.604 376.234 704.16 554.269 706.773 654.725L699.751 658.472C701.181 620.799 686.97 540.12 678.505 490.609C670.757 445.292 645.73 351.722 632.906 310.6C630.97 307.176 625.87 300.019 620.967 298.785C616.063 297.55 610.485 287.795 608.309 283.073C604.58 276.682 599.142 262.18 607.225 255.299C615.309 248.418 623.836 252.141 627.09 254.862C630.875 258.726 639.054 268.377 641.484 276.067C643.914 283.757 638.942 295.076 636.153 299.774Z" fill="url(#paint21_linear_0_1)" stroke="black"/>
<path d="M586.357 422.189C607.414 472.09 659.769 583.579 700.734 630.326L705.784 627.088C689.229 611.243 662.321 565.222 645.681 537.16C630.451 511.474 603.471 452.12 592.517 424.759C592.035 421.872 591.547 415.103 593.453 411.12C595.359 407.136 594.016 398.87 593.106 395.236C592.262 389.769 588.852 379.479 581.958 382.059C575.065 384.639 572.413 392.271 571.948 395.765C571.701 400.142 571.715 410.18 573.747 415.319C575.78 420.458 583.001 422.041 586.357 422.189Z" fill="url(#paint22_linear_0_1)" stroke="black"/>
<path d="M630.071 419.49C647.284 471.679 654.917 510.01 654.917 510.01L681.16 596.945L702.686 657.131C702.686 657.131 679.771 551.172 670.4 524.156C661.03 497.14 659.303 476.583 643.338 432.927C627.373 389.271 634.27 386.883 630.983 378.533C627.724 370.253 630.214 368.144 631.86 366.749L631.903 366.714C633.548 365.319 641.471 362.572 642.175 357.139C642.879 351.705 642.536 342.64 640.056 339.159C637.577 335.679 636.128 334.112 631.834 334.564C627.539 335.016 626.926 332.754 624.899 332.361C622.872 331.967 620.815 333.874 619.7 326.638C618.585 319.403 617.693 317.167 612.262 316.196C606.831 315.225 603.976 313.731 600.231 318.574C596.487 323.417 594.299 323.85 594.946 329.546C595.594 335.241 595.497 331.66 595.31 335.615C595.124 339.57 596.26 340.158 587.331 343.493C578.402 346.828 579.822 353.034 580.506 360.592C581.19 368.151 587.996 372.587 590.33 373.191C592.664 373.795 599.627 372.555 603.809 375.808C607.991 379.06 612.858 367.301 630.071 419.49Z" fill="url(#paint23_linear_0_1)" fill-opacity="0.87" stroke="black"/>
<path d="M589.228 508.272C608.124 538.847 654.144 606.322 687.05 631.621L690.417 628.627C677.353 620.472 654.565 593.453 640.503 577.014C627.633 561.968 603.772 525.905 593.834 509.047C593.268 507.163 592.4 502.643 593.459 499.637C594.519 496.632 592.923 491.23 591.993 488.905C590.971 485.324 587.741 478.873 583.004 481.71C578.267 484.547 576.953 490.148 576.889 492.594C577.047 495.606 577.826 502.421 579.675 505.591C581.524 508.761 586.814 508.699 589.228 508.272Z" fill="url(#paint24_linear_0_1)" stroke="black"/>
<path d="M639.205 409.527C646.761 464.664 668.769 589.61 696.354 648.298L702.058 646.845C690.131 626.069 675.932 572.738 667.051 540.142C658.922 510.306 648.067 444.084 644.495 414.047C644.768 411.101 646.029 404.406 648.89 401.193C651.75 397.98 652.568 389.557 652.62 385.748C653.205 380.192 652.546 369.131 645.231 369.338C637.915 369.544 633.4 376.032 632.058 379.25C630.699 383.392 628.142 393.085 628.789 398.719C629.436 404.352 636.003 408.271 639.205 409.527Z" fill="url(#paint25_linear_0_1)" stroke="black"/>
<path d="M682.034 376.389C681.667 434.061 685.421 565.767 703.378 631.215L708.93 630.923C700.543 607.304 694.43 550.089 690.502 515.077C686.907 483.029 685.678 413.392 686.389 382.088C687.044 379.147 689.135 372.598 692.255 369.923C695.375 367.248 697.284 358.849 697.848 354.983C699.149 349.452 700.027 338.061 693.131 336.75C686.234 335.439 681.117 341.102 679.421 344.097C677.584 348.029 673.872 357.36 673.717 363.227C673.563 369.093 679.197 374.446 682.034 376.389Z" fill="url(#paint26_linear_0_1)" stroke="black"/>
<path d="M544.42 399.936C587.747 453.084 683.726 578.531 721.028 655.138L717.223 659.791C704.993 630.454 666.194 571.983 642.571 536.037C620.949 503.135 569.714 437.477 545.865 409.082C543.245 406.936 537.001 402.718 532.988 403.005C528.974 403.291 521.465 397.196 518.213 394.112C513.239 390.137 504.161 380.354 507.637 373.023C511.112 365.692 518.647 366.405 521.981 367.678C526.105 369.695 535.475 375.056 539.958 380.358C544.441 385.66 544.801 395.619 544.42 399.936Z" fill="url(#paint27_linear_0_1)" stroke="black"/>
<defs>
<filter id="filter0_d_0_1" x="124.098" y="306.928" width="625.981" height="381.164" filterUnits="userSpaceOnUse" color-interpolation-filters="sRGB">
<feFlood flood-opacity="0" result="BackgroundImageFix"/>
<feColorMatrix in="SourceAlpha" type="matrix" values="0 0 0 0 0 0 0 0 0 0 0 0 0 0 0 0 0 0 127 0" result="hardAlpha"/>
<feOffset dx="2" dy="4"/>
<feGaussianBlur stdDeviation="2"/>
<feComposite in2="hardAlpha" operator="out"/>
<feColorMatrix type="matrix" values="0 0 0 0 0 0 0 0 0 0 0 0 0 0 0 0 0 0 0.25 0"/>
<feBlend mode="normal" in2="BackgroundImageFix" result="effect1_dropShadow_0_1"/>
<feBlend mode="normal" in="SourceGraphic" in2="effect1_dropShadow_0_1" result="shape"/>
</filter>
<filter id="filter1_d_0_1" x="679.724" y="223.489" width="616.5" height="465.982" filterUnits="userSpaceOnUse" color-interpolation-filters="sRGB">
<feFlood flood-opacity="0" result="BackgroundImageFix"/>
<feColorMatrix in="SourceAlpha" type="matrix" values="0 0 0 0 0 0 0 0 0 0 0 0 0 0 0 0 0 0 127 0" result="hardAlpha"/>
<feOffset dx="2" dy="4"/>
<feGaussianBlur stdDeviation="2"/>
<feComposite in2="hardAlpha" operator="out"/>
<feColorMatrix type="matrix" values="0 0 0 0 0 0 0 0 0 0 0 0 0 0 0 0 0 0 0.25 0"/>
<feBlend mode="normal" in2="BackgroundImageFix" result="effect1_dropShadow_0_1"/>
<feBlend mode="normal" in="SourceGraphic" in2="effect1_dropShadow_0_1" result="shape"/>
</filter>
<filter id="filter2_d_0_1" x="393.699" y="600.891" width="340.466" height="389.913" filterUnits="userSpaceOnUse" color-interpolation-filters="sRGB">
<feFlood flood-opacity="0" result="BackgroundImageFix"/>
<feColorMatrix in="SourceAlpha" type="matrix" values="0 0 0 0 0 0 0 0 0 0 0 0 0 0 0 0 0 0 127 0" result="hardAlpha"/>
<feOffset dx="2" dy="4"/>
<feGaussianBlur stdDeviation="2"/>
<feComposite in2="hardAlpha" operator="out"/>
<feColorMatrix type="matrix" values="0 0 0 0 0 0 0 0 0 0 0 0 0 0 0 0 0 0 0.25 0"/>
<feBlend mode="normal" in2="BackgroundImageFix" result="effect1_dropShadow_0_1"/>
<feBlend mode="normal" in="SourceGraphic" in2="effect1_dropShadow_0_1" result="shape"/>
</filter>
<filter id="filter3_d_0_1" x="510.499" y="43.7382" width="357.681" height="623.28" filterUnits="userSpaceOnUse" color-interpolation-filters="sRGB">
<feFlood flood-opacity="0" result="BackgroundImageFix"/>
<feColorMatrix in="SourceAlpha" type="matrix" values="0 0 0 0 0 0 0 0 0 0 0 0 0 0 0 0 0 0 127 0" result="hardAlpha"/>
<feOffset dx="2" dy="4"/>
<feGaussianBlur stdDeviation="2"/>
<feComposite in2="hardAlpha" operator="out"/>
<feColorMatrix type="matrix" values="0 0 0 0 0 0 0 0 0 0 0 0 0 0 0 0 0 0 0.25 0"/>
<feBlend mode="normal" in2="BackgroundImageFix" result="effect1_dropShadow_0_1"/>
<feBlend mode="normal" in="SourceGraphic" in2="effect1_dropShadow_0_1" result="shape"/>
</filter>
<filter id="filter4_d_0_1" x="16.7247" y="496.437" width="694.229" height="250.344" filterUnits="userSpaceOnUse" color-interpolation-filters="sRGB">
<feFlood flood-opacity="0" result="BackgroundImageFix"/>
<feColorMatrix in="SourceAlpha" type="matrix" values="0 0 0 0 0 0 0 0 0 0 0 0 0 0 0 0 0 0 127 0" result="hardAlpha"/>
<feOffset dx="2" dy="4"/>
<feGaussianBlur stdDeviation="2"/>
<feComposite in2="hardAlpha" operator="out"/>
<feColorMatrix type="matrix" values="0 0 0 0 0 0 0 0 0 0 0 0 0 0 0 0 0 0 0.25 0"/>
<feBlend mode="normal" in2="BackgroundImageFix" result="effect1_dropShadow_0_1"/>
<feBlend mode="normal" in="SourceGraphic" in2="effect1_dropShadow_0_1" result="shape"/>
</filter>
<filter id="filter5_d_0_1" x="701.415" y="550.323" width="513.022" height="407.243" filterUnits="userSpaceOnUse" color-interpolation-filters="sRGB">
<feFlood flood-opacity="0" result="BackgroundImageFix"/>
<feColorMatrix in="SourceAlpha" type="matrix" values="0 0 0 0 0 0 0 0 0 0 0 0 0 0 0 0 0 0 127 0" result="hardAlpha"/>
<feOffset dx="2" dy="4"/>
<feGaussianBlur stdDeviation="2"/>
<feComposite in2="hardAlpha" operator="out"/>
<feColorMatrix type="matrix" values="0 0 0 0 0 0 0 0 0 0 0 0 0 0 0 0 0 0 0.25 0"/>
<feBlend mode="normal" in2="BackgroundImageFix" result="effect1_dropShadow_0_1"/>
<feBlend mode="normal" in="SourceGraphic" in2="effect1_dropShadow_0_1" result="shape"/>
</filter>
<linearGradient id="paint0_linear_0_1" x1="622.725" y1="1063.74" x2="743.225" y2="613.738" gradientUnits="userSpaceOnUse">
<stop offset="0.216346" stop-color="#3A2700"/>
<stop offset="0.653846" stop-color="#0C2C00"/>
<stop offset="1" stop-color="#2A3E00"/>
</linearGradient>
<radialGradient id="paint1_radial_0_1" cx="0" cy="0" r="1" gradientTransform="matrix(155.512 335.929 -539.192 214.795 704.841 869.983)" gradientUnits="userSpaceOnUse">
<stop offset="0.423077" stop-color="#011F00"/>
<stop offset="1" stop-color="#034B00"/>
</radialGradient>
<radialGradient id="paint2_radial_0_1" cx="0" cy="0" r="1" gradientTransform="matrix(155.512 335.929 -539.192 214.795 704.841 869.983)" gradientUnits="userSpaceOnUse">
<stop offset="0.423077" stop-color="#011F00"/>
<stop offset="1" stop-color="#034B00"/>
</radialGradient>
<linearGradient id="paint3_linear_0_1" x1="161.383" y1="688.739" x2="749.17" y2="559.307" gradientUnits="userSpaceOnUse">
<stop offset="0.115385" stop-color="#940000" stop-opacity="0.69"/>
<stop offset="0.913462" stop-color="#2E0000"/>
</linearGradient>
<linearGradient id="paint4_linear_0_1" x1="164.891" y1="559.57" x2="709.371" y2="439.674" gradientUnits="userSpaceOnUse">
<stop offset="0.456731" stop-color="#D90707" stop-opacity="0.55"/>
<stop offset="0.769231" stop-color="#B10606" stop-opacity="0.89"/>
<stop offset="1" stop-color="#2D0000"/>
</linearGradient>
<linearGradient id="paint5_linear_0_1" x1="164.891" y1="559.57" x2="709.371" y2="439.674" gradientUnits="userSpaceOnUse">
<stop offset="0.495192" stop-color="#D90707" stop-opacity="0.42"/>
<stop offset="0.668269" stop-color="#B10606" stop-opacity="0.93"/>
<stop offset="1" stop-color="#2D0000"/>
</linearGradient>
<linearGradient id="paint6_linear_0_1" x1="952.604" y1="196.474" x2="877.268" y2="696.699" gradientUnits="userSpaceOnUse">
<stop offset="0.115385" stop-color="#940000" stop-opacity="0.69"/>
<stop offset="0.913462" stop-color="#2E0000"/>
</linearGradient>
<linearGradient id="paint7_linear_0_1" x1="1016.9" y1="218.814" x2="943.425" y2="706.662" gradientUnits="userSpaceOnUse">
<stop offset="0.456731" stop-color="#D90707" stop-opacity="0.55"/>
<stop offset="0.769231" stop-color="#B10606" stop-opacity="0.89"/>
<stop offset="1" stop-color="#2D0000"/>
</linearGradient>
<linearGradient id="paint8_linear_0_1" x1="1016.9" y1="218.814" x2="943.425" y2="706.662" gradientUnits="userSpaceOnUse">
<stop offset="0.495192" stop-color="#D90707" stop-opacity="0.42"/>
<stop offset="0.668269" stop-color="#B10606" stop-opacity="0.93"/>
<stop offset="1" stop-color="#2D0000"/>
</linearGradient>
<linearGradient id="paint9_linear_0_1" x1="528.972" y1="1145.06" x2="537.277" y2="632.392" gradientUnits="userSpaceOnUse">
<stop offset="0.115385" stop-color="#940000" stop-opacity="0.69"/>
<stop offset="0.913462" stop-color="#2E0000"/>
</linearGradient>
<linearGradient id="paint10_linear_0_1" x1="558.28" y1="984.912" x2="564.503" y2="600.734" gradientUnits="userSpaceOnUse">
<stop offset="0.456731" stop-color="#D90707" stop-opacity="0.55"/>
<stop offset="0.769231" stop-color="#B10606" stop-opacity="0.89"/>
<stop offset="1" stop-color="#2D0000"/>
</linearGradient>
<linearGradient id="paint11_linear_0_1" x1="558.28" y1="984.912" x2="564.503" y2="600.734" gradientUnits="userSpaceOnUse">
<stop offset="0.495192" stop-color="#D90707" stop-opacity="0.42"/>
<stop offset="0.668269" stop-color="#B10606" stop-opacity="0.93"/>
<stop offset="1" stop-color="#2D0000"/>
</linearGradient>
<linearGradient id="paint12_linear_0_1" x1="515.711" y1="172.489" x2="855.167" y2="547.55" gradientUnits="userSpaceOnUse">
<stop offset="0.115385" stop-color="#940000" stop-opacity="0.69"/>
<stop offset="0.913462" stop-color="#2E0000"/>
</linearGradient>
<linearGradient id="paint13_linear_0_1" x1="523.212" y1="156.282" x2="867.426" y2="536.598" gradientUnits="userSpaceOnUse">
<stop offset="0.456731" stop-color="#D90707" stop-opacity="0.55"/>
<stop offset="0.769231" stop-color="#B10606" stop-opacity="0.89"/>
<stop offset="1" stop-color="#2D0000"/>
</linearGradient>
<linearGradient id="paint14_linear_0_1" x1="523.212" y1="156.282" x2="867.426" y2="536.598" gradientUnits="userSpaceOnUse">
<stop offset="0.495192" stop-color="#D90707" stop-opacity="0.42"/>
<stop offset="0.668269" stop-color="#B10606" stop-opacity="0.93"/>
<stop offset="1" stop-color="#2D0000"/>
</linearGradient>
<linearGradient id="paint15_linear_0_1" x1="51.8477" y1="911.491" x2="611.547" y2="497.557" gradientUnits="userSpaceOnUse">
<stop offset="0.115385" stop-color="#940000" stop-opacity="0.69"/>
<stop offset="0.913462" stop-color="#2E0000"/>
</linearGradient>
<linearGradient id="paint16_linear_0_1" x1="143.914" y1="810.512" x2="595.823" y2="476.296" gradientUnits="userSpaceOnUse">
<stop offset="0.456731" stop-color="#D90707" stop-opacity="0.55"/>
<stop offset="0.769231" stop-color="#B10606" stop-opacity="0.89"/>
<stop offset="1" stop-color="#2D0000"/>
</linearGradient>
<linearGradient id="paint17_linear_0_1" x1="143.914" y1="810.512" x2="595.823" y2="476.296" gradientUnits="userSpaceOnUse">
<stop offset="0.495192" stop-color="#D90707" stop-opacity="0.42"/>
<stop offset="0.668269" stop-color="#B10606" stop-opacity="0.93"/>
<stop offset="1" stop-color="#2D0000"/>
</linearGradient>
<linearGradient id="paint18_linear_0_1" x1="1169.69" y1="1140.63" x2="600.372" y2="866.046" gradientUnits="userSpaceOnUse">
<stop offset="0.115385" stop-color="#940000" stop-opacity="0.69"/>
<stop offset="0.913462" stop-color="#2E0000"/>
</linearGradient>
<linearGradient id="paint19_linear_0_1" x1="1247.7" y1="851.092" x2="726.74" y2="599.828" gradientUnits="userSpaceOnUse">
<stop offset="0.456731" stop-color="#D90707" stop-opacity="0.55"/>
<stop offset="0.769231" stop-color="#B10606" stop-opacity="0.89"/>
<stop offset="1" stop-color="#2D0000"/>
</linearGradient>
<linearGradient id="paint20_linear_0_1" x1="1247.7" y1="851.092" x2="726.74" y2="599.828" gradientUnits="userSpaceOnUse">
<stop offset="0.495192" stop-color="#D90707" stop-opacity="0.42"/>
<stop offset="0.668269" stop-color="#B10606" stop-opacity="0.93"/>
<stop offset="1" stop-color="#2D0000"/>
</linearGradient>
<linearGradient id="paint21_linear_0_1" x1="604.023" y1="256.525" x2="792.195" y2="609.14" gradientUnits="userSpaceOnUse">
<stop stop-color="#A47000"/>
<stop offset="1" stop-color="#271B00"/>
</linearGradient>
<linearGradient id="paint22_linear_0_1" x1="584.058" y1="380.365" x2="731.641" y2="610.507" gradientUnits="userSpaceOnUse">
<stop stop-color="#A47000"/>
<stop offset="1" stop-color="#271B00"/>
</linearGradient>
<linearGradient id="paint23_linear_0_1" x1="587.148" y1="301.396" x2="763.352" y2="622.874" gradientUnits="userSpaceOnUse">
<stop stop-color="#FFAA00"/>
<stop offset="0.5625" stop-color="#9F7625"/>
</linearGradient>
<linearGradient id="paint24_linear_0_1" x1="584.378" y1="480.23" x2="704.898" y2="615.749" gradientUnits="userSpaceOnUse">
<stop stop-color="#A47000"/>
<stop offset="1" stop-color="#271B00"/>
</linearGradient>
<linearGradient id="paint25_linear_0_1" x1="647.692" y1="368.399" x2="717.593" y2="642.889" gradientUnits="userSpaceOnUse">
<stop stop-color="#A47000"/>
<stop offset="1" stop-color="#271B00"/>
</linearGradient>
<linearGradient id="paint26_linear_0_1" x1="695.568" y1="336.306" x2="711.065" y2="630.811" gradientUnits="userSpaceOnUse">
<stop stop-color="#A47000"/>
<stop offset="1" stop-color="#271B00"/>
</linearGradient>
<linearGradient id="paint27_linear_0_1" x1="505.73" y1="374.773" x2="772.147" y2="592.623" gradientUnits="userSpaceOnUse">
<stop stop-color="#A47000"/>
<stop offset="1" stop-color="#271B00"/>
</linearGradient>
</defs>
</svg>
