<svg width="183" height="715" viewBox="0 0 183 715" fill="none" xmlns="http://www.w3.org/2000/svg">
<path d="M77.2545 232.303C60.8342 341.021 63.8313 415.254 69.0729 485.453C74.3116 555.615 81.7961 621.788 74.3649 714.303H85.3805C96.5509 621.887 90.4412 570.372 84.5758 507.475C78.7065 444.536 73.0876 370.242 85.278 232.303H77.2545Z" fill="url(#paint0_linear_0_1)" stroke="#433F00"/>
<path id='clickable-bud' class='clickable' d="M39.4197 227.803C16.9197 202.303 22.7827 155.547 23.1161 141.88C23.283 119.714 33.6162 82.1134 41.6164 73.3803C65.6162 14.8802 121.06 -7.6197 120.616 6.88033L120.92 6.88027C120.675 0.380092 139.516 0.280321 151.116 19.8803C162.716 39.4803 172.95 72.7137 176.616 86.8804C179.95 96.3803 179.878 119.457 176.616 141.88C172.616 169.38 164.616 195.38 164.616 195.38C154.116 230.38 124.42 241.803 114.42 241.803C92.7531 244.136 90.1975 244.692 90.9011 244.803L92.4197 244.803C92.4197 244.803 91.253 244.858 90.9011 244.803L77.9197 244.803C77.9197 244.803 64.4197 245.303 39.4197 227.803Z" fill="url(#paint1_linear_0_1)"/>
<path d="M39.4197 227.803C16.9197 202.303 22.7827 155.547 23.1161 141.88C23.283 119.714 33.6162 82.1134 41.6164 73.3803C65.6162 14.8802 121.06 -7.6197 120.616 6.88033L120.92 6.88027C120.675 0.380092 139.516 0.280321 151.116 19.8803C162.716 39.4803 172.95 72.7137 176.616 86.8804C179.95 96.3803 179.878 119.457 176.616 141.88C172.616 169.38 164.616 195.38 164.616 195.38C154.116 230.38 124.42 241.803 114.42 241.803C81.9197 245.303 92.4197 244.803 92.4197 244.803L77.9197 244.803C77.9197 244.803 64.4197 245.303 39.4197 227.803Z" stroke="#113707" stroke-opacity="0.53"/>
<path d="M95.7457 236.313C95.0794 236.748 94.6171 237.428 94.4643 238.209C94.3112 238.99 94.48 239.808 94.9301 240.477C95.3802 241.146 96.0736 241.611 96.8543 241.764C97.6352 241.917 98.4394 241.746 99.0936 241.293C99.0936 241.293 99.0936 241.293 99.0936 241.293C102.161 239.169 105.186 237.02 108.167 234.801C171.558 195.645 159.924 112.51 146.834 51.1244C146.072 47.5921 145.268 43.9858 144.42 40.303C145.17 44.0069 145.877 47.6331 146.54 51.1836C158.084 113.332 166.66 194.719 104.826 230.183C101.854 232.272 98.8277 234.301 95.7457 236.313Z" fill="#0D2600"/>
<path d="M57.3505 232.851C57.7499 233.54 58.4046 234.036 59.1771 234.227C59.9492 234.419 60.7759 234.289 61.4687 233.871C62.1615 233.454 62.6617 232.783 62.8528 232.011C63.0443 231.238 62.911 230.428 62.4887 229.753C62.4887 229.753 62.4887 229.753 62.4887 229.753C60.8889 227.197 59.2975 224.639 57.7543 222.075C25.5531 176.307 40.5259 116.468 60.4563 67.2155C61.5607 64.4618 62.7148 61.658 63.9197 58.8029C62.6233 61.6177 61.3771 64.3826 60.1797 67.0991C38.7493 115.432 21.0272 176.059 52.822 224.932C54.3071 227.595 55.8313 230.235 57.3505 232.851Z" fill="#0B1F00"/>
<path d="M120.912 6.88854C121.271 11.1485 121.602 15.296 121.905 19.3346C124.505 56.3075 126.67 93.3684 122.197 130.015C120.396 168.191 91.6352 195.658 80.9374 232.138C79.6538 236.167 78.5606 240.009 77.4908 244.211C79.11 244.606 80.7292 245 82.3484 245.395C83.3152 241.264 84.3036 237.49 85.4765 233.538C94.791 198.431 123.645 169.007 124.678 130.317C128.439 93.2133 125.496 56.2516 122.154 19.3134C121.768 15.281 121.354 11.1407 120.912 6.88854Z" fill="#0F2104"/>
<path d="M70.689 299.62C71.4644 238.798 128.466 220.462 158.819 236.529C157.905 236.804 156.404 237.187 154.528 237.662C130.359 251.151 76.2005 376.188 70.689 299.62Z" fill="url(#paint2_radial_0_1)"/>
<path d="M72.2198 397.76C67.919 358.62 47.6177 281.993 0.819092 288.603C29.5068 336.122 51.0544 428.844 72.2198 397.76Z" fill="url(#paint3_radial_0_1)"/>
<path d="M158.819 236.529C137.566 234.14 76.5568 381.139 70.689 299.62C71.4644 238.798 128.466 220.462 158.819 236.529C155.414 237.554 143.884 240.069 135.092 243.289C130.562 244.948 129.329 245.742 124.923 248.82M89.4959 283.475C86.5165 285.313 83.6448 286.984 81.0782 288.603C75.4736 292.137 71.3246 295.419 70.689 299.62M0.819092 288.603C29.5068 336.122 51.0544 428.844 72.2198 397.76C67.919 358.62 47.6177 281.993 0.819092 288.603ZM61.6136 372.213C63.8878 376.902 65.8529 381.28 67.5099 385.243C69.5433 390.106 71.1127 394.344 72.2198 397.76M16.4551 304.431C15.001 302.815 13.5193 301.21 12.0099 299.62C8.43513 295.854 4.70497 292.169 0.819092 288.603M81.0782 288.603C82.1711 282.177 86.4343 280.843 89.4959 265.821M89.4959 283.475C92.8126 283.008 95.4004 299.62 102.07 292.86M89.4959 283.475C93.6568 280.909 99.1211 277.044 103.164 273.525M124.923 248.82C122.744 250.342 120.646 252.073 118.69 254.046C116.329 256.428 114.178 259.165 112.349 262.316C109.546 267.143 107.053 270.138 103.164 273.525M103.164 273.525C103.596 258.024 107.647 257.81 106.772 244.817M118.69 254.046C118.69 254.046 122.299 254.046 124.923 259.061M124.923 248.82C124.923 248.82 125.36 241.286 127.766 239.032M135.092 243.289C135.092 243.289 140.012 250.299 141.434 245.792M67.5099 385.243C63.267 376.775 59.8949 350.437 55.8184 342.181M61.6136 372.213C51.8969 371.571 50.57 354.95 37.2302 355.951M61.6136 372.213C58.5091 365.813 54.8287 358.834 50.57 351.545M50.57 351.545C48.979 334.492 43.1347 333.419 42.3693 315.393M50.57 351.545C48.0406 347.216 45.3072 342.777 42.3693 338.285M42.3693 338.285C35.2043 341.939 35.4807 330.164 24.4371 327.911M25.3118 314.82C26.9573 316.855 28.561 318.898 30.1229 320.946C34.5387 326.735 38.6205 332.553 42.3693 338.285M30.1229 320.946C26.547 312.587 30.4509 308.633 25.3118 299.62M25.3118 314.82C25.3118 314.82 22.0315 317.395 18.4232 314.82M16.4551 304.431C18.0939 306.252 19.6976 308.089 21.2662 309.937C22.6417 311.557 23.9903 313.185 25.3118 314.82M16.4551 304.431C16.0486 300.79 14.3776 298.368 14.4869 296.615M12.0099 299.62C12.0099 299.62 10.7693 301.372 9.45715 299.62M21.2662 309.937C21.7243 303.785 18.97 302.624 19.626 296.615" stroke="#022B00"/>
<defs>
<linearGradient id="paint0_linear_0_1" x1="-14.0804" y1="697.303" x2="106.42" y2="247.303" gradientUnits="userSpaceOnUse">
<stop offset="0.216346" stop-color="#3A2700"/>
<stop offset="0.653846" stop-color="#443F00"/>
<stop offset="1" stop-color="#2A3E00"/>
</linearGradient>
<linearGradient id="paint1_linear_0_1" x1="122.92" y1="4.30292" x2="77.9197" y2="247.803" gradientUnits="userSpaceOnUse">
<stop stop-color="#369729" stop-opacity="0.59"/>
<stop offset="0.317308" stop-color="#2A6421"/>
<stop offset="0.774038" stop-color="#0A2D00"/>
</linearGradient>
<radialGradient id="paint2_radial_0_1" cx="0" cy="0" r="1" gradientTransform="matrix(23.29 124.179 -80.7511 79.4006 70.2516 325.908)" gradientUnits="userSpaceOnUse">
<stop offset="0.423077" stop-color="#011F00"/>
<stop offset="1" stop-color="#034B00"/>
</radialGradient>
<radialGradient id="paint3_radial_0_1" cx="0" cy="0" r="1" gradientTransform="matrix(23.29 124.179 -80.7511 79.4006 70.2516 325.908)" gradientUnits="userSpaceOnUse">
<stop offset="0.423077" stop-color="#011F00"/>
<stop offset="1" stop-color="#034B00"/>
</radialGradient>
</defs>
</svg>
