<svg width="526" height="959" viewBox="0 0 526 959" fill="none" xmlns="http://www.w3.org/2000/svg">
<path d="M250.594 474.497H241.594C208.594 692.497 253.594 771.997 238.594 957.497H250.594C273.094 771.997 226.094 750.997 250.594 474.497Z" fill="url(#paint0_linear_0_1)" stroke="#433F00" stroke-width="2"/>
<path d="M230.449 491.301C279.374 497.756 317.116 415.678 329.872 373.832C362.792 306.813 370.091 152.018 369.626 82.9971C362.881 40.7627 361.356 43.3489 343.593 23.3953C334.233 12.8816 307.945 9.91324 302.812 8.92916C297.678 7.94508 280.101 -0.131947 256.138 1.13308C229.378 11.5677 227.552 10.5298 213.943 30.522C192.648 56.608 187.89 107.845 174.002 153.811C160.114 199.777 161.493 301.235 163.918 346.219C165.71 391.89 181.524 484.846 230.449 491.301Z" fill="url(#paint1_radial_0_1)"/>
<path d="M230.449 491.301C279.374 497.756 317.116 415.678 329.872 373.832C362.792 306.813 370.091 152.018 369.626 82.9971C362.881 40.7627 361.356 43.3489 343.593 23.3953C334.233 12.8816 307.945 9.91324 302.812 8.92916C297.678 7.94508 280.101 -0.131947 256.138 1.13308C229.378 11.5677 227.552 10.5298 213.943 30.522C192.648 56.608 187.89 107.845 174.002 153.811C160.114 199.777 161.493 301.235 163.918 346.219C165.71 391.89 181.524 484.846 230.449 491.301Z" fill="url(#paint2_radial_0_1)"/>
<path d="M230.449 491.301C279.374 497.756 317.116 415.678 329.872 373.832C362.792 306.813 370.091 152.018 369.626 82.9971C362.881 40.7627 361.356 43.3489 343.593 23.3953C334.233 12.8816 307.945 9.91324 302.812 8.92916M230.449 491.301C181.524 484.846 165.71 391.89 163.918 346.219C161.493 301.235 160.114 199.777 174.002 153.811C187.89 107.845 192.648 56.608 213.943 30.522C227.552 10.5298 229.378 11.5677 256.138 1.13308C280.101 -0.131947 297.678 7.94508 302.812 8.92916M230.449 491.301C237.76 303.353 253.583 197.733 302.812 8.92916" stroke="#530909" stroke-width="2"/>
<line x1="193.19" y1="443.997" x2="293.19" y2="443.997" stroke="white"/>
<path d="M186.668 456.768C162.014 406.365 168.439 313.948 168.804 286.935C168.987 243.121 180.309 168.801 189.075 151.539C215.372 35.909 276.122 -8.56391 275.636 20.0966L275.968 20.0964C275.7 7.24832 296.345 7.05112 309.055 45.7921C321.765 84.5331 332.978 150.222 336.996 178.223C340.648 197.001 340.57 242.613 336.996 286.935C332.613 341.291 323.847 392.682 323.847 392.682C312.342 461.862 279.803 484.44 268.846 484.44C245.106 489.052 242.306 490.15 243.077 490.37L244.741 490.37C244.741 490.37 243.462 490.479 243.077 490.37L228.853 490.37C228.853 490.37 214.061 491.358 186.668 456.768Z" fill="url(#paint3_linear_0_1)"/>
<path d="M186.668 456.768L186.221 456.975L186.246 457.026L186.281 457.07L186.668 456.768ZM168.804 286.935L169.303 286.96L169.303 286.955L168.804 286.935ZM189.075 151.539L189.522 151.779L189.549 151.726L189.562 151.667L189.075 151.539ZM275.636 20.0966L275.137 20.0696L275.128 20.5974L275.654 20.5972L275.636 20.0966ZM275.968 20.0964L275.987 20.5971L276.478 20.5969L276.468 20.1044L275.968 20.0964ZM309.055 45.7921L308.581 45.9326L309.055 45.7921ZM336.996 178.223L336.502 178.276L336.503 178.289L336.506 178.301L336.996 178.223ZM336.996 286.935L337.494 286.993V286.993L336.996 286.935ZM323.847 392.682L323.355 392.58L323.355 392.582L323.847 392.682ZM268.846 484.44L268.828 483.939L268.78 483.939L268.734 483.948L268.846 484.44ZM228.853 490.37L228.834 489.869L228.818 489.869L228.801 489.87L228.853 490.37ZM244.741 490.37L244.801 490.868L244.722 489.869L244.741 490.37ZM186.668 456.768L187.115 456.561C174.838 431.462 170.282 395.85 168.853 363.077C167.423 330.314 169.12 300.495 169.303 286.96L168.804 286.935L168.304 286.909C168.122 300.388 166.424 330.284 167.855 363.084C169.285 395.873 173.844 431.67 186.221 456.975L186.668 456.768ZM168.804 286.935L169.303 286.955C169.394 265.081 172.267 235.573 176.215 209.372C178.188 196.273 180.429 184.009 182.722 173.944C185.019 163.865 187.36 156.036 189.522 151.779L189.075 151.539L188.628 151.299C186.407 155.673 184.045 163.608 181.748 173.687C179.448 183.782 177.203 196.072 175.227 209.187C171.276 235.415 168.396 264.974 168.304 286.914L168.804 286.935ZM189.075 151.539L189.562 151.667C202.696 93.9136 224.429 53.9608 242.786 32.039C251.979 21.0613 260.277 14.6629 266.182 12.76C269.135 11.8085 271.367 12.0164 272.837 13.1638C274.311 14.315 275.196 16.5499 275.137 20.0696L275.636 20.0966L276.135 20.1235C276.197 16.4782 275.29 13.8333 273.432 12.3825C271.57 10.9279 268.93 10.8116 265.845 11.8057C259.674 13.7942 251.233 20.3671 242.012 31.3788C223.541 53.4359 201.75 93.5346 188.588 151.411L189.075 151.539ZM275.636 20.0966L275.654 20.5972L275.987 20.5971L275.968 20.0964L275.95 19.5958L275.617 19.5959L275.636 20.0966ZM275.968 20.0964L276.468 20.1044C276.403 17.0279 277.586 14.792 279.5 13.6785C281.419 12.5618 284.19 12.5051 287.445 14.0495C293.968 17.1451 302.243 26.6132 308.581 45.9326L309.055 45.7921L309.529 45.6516C303.157 26.2301 294.754 16.4262 287.845 13.1473C284.383 11.5044 281.249 11.4846 278.975 12.8078C276.696 14.1341 275.399 16.7409 275.469 20.0885L275.968 20.0964ZM309.055 45.7921L308.581 45.9326C321.276 84.6268 332.484 150.276 336.502 178.276L336.996 178.223L337.49 178.17C333.472 150.167 322.254 84.4394 309.529 45.6516L309.055 45.7921ZM336.996 178.223L336.506 178.301C338.322 187.638 339.216 203.693 339.206 222.981C339.196 242.257 338.284 264.728 336.498 286.876L336.996 286.935L337.494 286.993C339.281 264.82 340.195 242.323 340.205 223.019C340.215 203.725 339.322 187.586 337.486 178.145L336.996 178.223ZM336.996 286.935L336.498 286.876C334.308 314.041 331.022 340.468 328.283 360.105C326.914 369.922 325.682 378.042 324.792 383.707C324.347 386.539 323.988 388.758 323.74 390.268C323.616 391.024 323.519 391.602 323.454 391.991C323.422 392.185 323.397 392.333 323.38 392.431C323.372 392.481 323.365 392.518 323.361 392.543C323.359 392.555 323.358 392.564 323.357 392.571C323.356 392.574 323.356 392.576 323.355 392.578C323.355 392.578 323.355 392.579 323.355 392.579C323.355 392.58 323.355 392.58 323.847 392.682C324.34 392.784 324.34 392.783 324.34 392.783C324.34 392.783 324.34 392.782 324.34 392.781C324.34 392.78 324.341 392.777 324.341 392.774C324.342 392.768 324.344 392.758 324.346 392.746C324.35 392.721 324.357 392.683 324.365 392.634C324.382 392.535 324.407 392.387 324.439 392.192C324.505 391.802 324.601 391.223 324.725 390.466C324.974 388.954 325.333 386.733 325.779 383.898C326.669 378.229 327.903 370.103 329.273 360.279C332.013 340.631 335.301 314.184 337.494 286.993L336.996 286.935ZM323.847 392.682L323.355 392.582C317.613 427.107 306.628 449.97 295.741 464.189C290.297 471.3 284.879 476.247 280.157 479.412C275.419 482.587 271.427 483.939 268.828 483.939L268.846 484.44L268.865 484.941C271.744 484.941 275.928 483.471 280.733 480.251C285.553 477.02 291.043 471.999 296.542 464.817C307.539 450.453 318.577 427.437 324.34 392.782L323.847 392.682ZM186.668 456.768L186.281 457.07C200.006 474.401 210.601 482.853 217.797 486.973C221.396 489.033 224.146 490.009 226.011 490.469C226.943 490.7 227.654 490.8 228.138 490.843C228.38 490.865 228.565 490.872 228.693 490.873C228.757 490.874 228.807 490.873 228.842 490.872C228.859 490.871 228.873 490.871 228.884 490.87C228.889 490.87 228.893 490.87 228.897 490.87C228.898 490.87 228.9 490.869 228.901 490.869C228.902 490.869 228.903 490.869 228.903 490.869C228.904 490.869 228.904 490.869 228.853 490.37C228.801 489.87 228.802 489.87 228.802 489.87C228.802 489.87 228.803 489.87 228.803 489.87C228.803 489.87 228.803 489.87 228.803 489.87C228.803 489.87 228.802 489.87 228.8 489.87C228.796 489.87 228.788 489.871 228.777 489.871C228.755 489.872 228.718 489.872 228.667 489.872C228.565 489.871 228.405 489.865 228.189 489.846C227.757 489.808 227.098 489.715 226.216 489.498C224.451 489.062 221.791 488.124 218.268 486.107C211.22 482.073 200.723 473.725 187.054 456.465L186.668 456.768ZM228.853 490.37L228.871 490.87L243.095 490.87L243.077 490.37L243.058 489.869L228.834 489.869L228.853 490.37ZM243.077 490.37L243.095 490.87L244.759 490.87L244.741 490.37L244.722 489.869L243.058 489.869L243.077 490.37ZM244.741 490.37C244.68 489.871 244.68 489.871 244.68 489.871C244.68 489.871 244.68 489.871 244.68 489.871C244.68 489.871 244.68 489.871 244.68 489.871C244.68 489.871 244.68 489.871 244.679 489.871C244.679 489.871 244.678 489.871 244.677 489.871C244.675 489.871 244.672 489.872 244.667 489.872C244.658 489.873 244.645 489.874 244.628 489.875C244.594 489.878 244.544 489.881 244.483 489.886C244.36 489.894 244.194 489.904 244.016 489.911C243.838 489.917 243.654 489.92 243.496 489.916C243.323 489.91 243.226 489.897 243.197 489.888L243.077 490.37L242.957 490.851C243.12 490.897 243.328 490.911 243.503 490.916C243.693 490.922 243.901 490.918 244.09 490.911C244.281 490.904 244.458 490.893 244.587 490.885C244.652 490.88 244.705 490.876 244.742 490.873C244.76 490.872 244.775 490.871 244.785 490.87C244.79 490.869 244.794 490.869 244.797 490.869C244.798 490.869 244.799 490.869 244.8 490.869C244.8 490.869 244.801 490.869 244.801 490.868C244.801 490.868 244.801 490.868 244.801 490.868C244.801 490.868 244.801 490.868 244.801 490.868C244.801 490.868 244.801 490.868 244.741 490.37ZM243.077 490.37L243.197 489.888C243.193 489.887 243.208 489.891 243.233 489.904C243.254 489.915 243.316 489.95 243.372 490.025C243.439 490.113 243.48 490.235 243.464 490.363C243.45 490.473 243.4 490.542 243.38 490.567C243.344 490.611 243.323 490.612 243.385 490.578C243.434 490.551 243.515 490.514 243.636 490.466C244.128 490.273 245.119 489.978 246.905 489.538C250.464 488.663 257.089 487.237 268.959 484.932L268.846 484.44L268.734 483.948C256.863 486.254 250.218 487.684 246.634 488.565C244.849 489.005 243.801 489.313 243.243 489.532C243.102 489.587 242.981 489.641 242.884 489.694C242.798 489.741 242.683 489.811 242.598 489.915C242.553 489.97 242.49 490.066 242.473 490.202C242.453 490.356 242.501 490.5 242.584 490.61C242.657 490.706 242.744 490.76 242.798 490.789C242.856 490.819 242.912 490.838 242.957 490.851L243.077 490.37Z" fill="#113707" fill-opacity="0.53"/>
<path d="M247.883 476.308C247.411 476.872 247.204 477.644 247.311 478.459C247.418 479.273 247.83 480.063 248.455 480.651C249.079 481.239 249.863 481.578 250.632 481.589C251.401 481.601 252.092 481.284 252.555 480.712C252.555 480.712 252.555 480.712 252.555 480.712C256.576 475.751 260.502 470.746 264.313 465.589C337.385 370.514 316.065 230.537 304.309 107.266C303.491 100.374 302.627 93.3404 301.718 86.1592C301.718 86.1592 301.718 86.1592 301.718 86.1592C302.531 93.3377 303.297 100.368 304.018 107.255C314.214 230.438 332.891 370.206 259.749 461.566C255.91 466.582 251.95 471.46 247.883 476.308Z" fill="#0D2600"/>
<path d="M206.286 464.617C206.532 465.376 207.068 466.005 207.78 466.365C208.492 466.725 209.322 466.786 210.083 466.537C210.844 466.287 211.473 465.748 211.828 465.038C212.182 464.329 212.234 463.507 211.974 462.753C211.974 462.753 211.974 462.753 211.974 462.753C210.097 457.293 208.222 451.805 206.424 446.344C170.601 347.518 187.792 240.245 209.631 139.622C210.868 134.093 212.162 128.462 213.513 122.726C213.513 122.726 213.513 122.726 213.513 122.726C212.065 128.437 210.674 134.045 209.339 139.552C185.808 239.718 166.459 347.111 200.996 448.042C202.712 453.574 204.5 459.119 206.286 464.617Z" fill="#0B1F00"/>
<path d="M275.96 20.1127C276.363 28.5813 276.733 36.8246 277.073 44.8503C286.122 192.512 276.761 336.117 232.356 466.109C230.979 473.96 229.815 481.375 228.669 489.527C230.252 490.089 231.836 490.651 233.419 491.213C234.479 483.085 235.555 475.692 236.844 467.87C279.554 338.643 287.911 192.161 277.313 44.8867C276.893 36.8484 276.442 28.593 275.96 20.1127Z" fill="#0F2104"/>
<g class="clickable" id="front-petals">
<path d="M231.546 487.11C198.152 492.465 171.286 416 162.027 377.097C138.651 314.635 131.692 171.236 131.134 107.345C135.204 68.4193 157.348 66.805 148.253 52.5944C138.823 57.7161 127.56 63.9655 113.69 71.4972C133.514 24.7698 151.19 26.9972 158.69 25.9972C166.19 24.9972 191.19 27.0921 191.19 27.0921C191.19 27.0921 196.728 29.2807 207.747 32.9973C226.19 42.9971 227.426 42.0595 236.991 60.7405C251.894 85.1607 255.8 132.655 265.886 175.386C275.972 218.116 276.316 312.027 275.228 353.641C274.582 395.899 264.941 481.755 231.546 487.11Z" fill="url(#paint4_radial_0_1)"/>
<path d="M148.19 52.4971C157.449 66.7979 135.213 68.3306 131.134 107.345C131.692 171.236 138.651 314.635 162.027 377.097C171.286 416 198.152 492.465 231.546 487.11C264.941 481.755 274.582 395.899 275.228 353.641C276.316 312.027 275.972 218.116 265.886 175.386C255.8 132.655 251.894 85.1607 236.991 60.7405C227.426 42.0595 226.19 42.9971 207.747 32.9973C196.728 29.2807 191.19 27.0921 191.19 27.0921C191.19 27.0921 166.19 24.9972 158.69 25.9972C151.19 26.9972 133.514 24.7698 113.69 71.4972C171.848 39.9158 184.169 30.8792 207.747 32.9973M113.69 71.4972C124.978 52.936 151.866 37.8308 191.19 27.0921" stroke="#660F04" stroke-width="2"/>
<path d="M234.582 492.573C285.377 499.734 325.451 424.58 339.139 386.107C374.048 324.793 383.22 181.517 383.442 117.543C379.101 91.6109 372.294 81.4335 372.474 79.8327C374.815 80.9481 377.196 82.0751 379.618 83.212C396.751 91.2548 415.937 99.798 437.625 108.301C407.047 60.4251 370.604 42.9662 376.571 46.6556C349.802 38.9075 330.398 34.9971 310.805 34.607C296.955 34.3312 283.01 35.8146 266.303 38.945C250.294 39.3267 236.49 46.9646 222.139 65.1639C199.733 88.8253 194.263 136.192 179.356 178.455C164.448 220.719 164.843 314.775 166.904 356.521C168.299 398.888 183.788 485.413 234.582 492.573Z" fill="url(#paint5_radial_0_1)"/>
</g>
<path d="M266.303 38.945C283.01 35.8146 296.955 34.3312 310.805 34.607C330.398 34.9971 349.802 38.9075 376.571 46.6556C370.604 42.9662 407.047 60.4251 437.625 108.301C348.947 73.5357 302.109 38.0914 266.303 38.945ZM437.625 108.301C420.292 89.0997 370.662 47.4797 310.805 34.607M266.303 38.945C250.294 39.3267 236.49 46.9646 222.139 65.1639C199.733 88.8253 194.263 136.192 179.356 178.455C164.448 220.719 164.843 314.775 166.904 356.521C168.299 398.888 183.788 485.413 234.582 492.573C285.377 499.734 325.451 424.58 339.139 386.107C374.048 324.793 383.22 181.517 383.442 117.543C376.863 78.2417 364.62 75.1272 379.618 83.212" stroke="#273405" stroke-width="2"/>
<path class="clickable" id="leaf-right" d="M232.911 588.838C235.482 477.741 424.524 444.248 525.19 473.596C522.157 474.099 517.182 474.798 510.96 475.666C430.805 500.305 251.189 728.697 232.911 588.838Z" fill="url(#paint6_radial_0_1)"/>
<path class="clickable" id="leaf-left" d="M237.987 768.1C223.724 696.607 156.396 556.641 1.19019 568.714C96.3318 655.511 167.793 824.878 237.987 768.1Z" fill="url(#paint7_radial_0_1)"/>
<path d="M525.19 473.596C454.705 469.232 252.371 737.739 232.911 588.838C235.482 477.741 424.524 444.248 525.19 473.596C513.897 475.469 475.659 480.062 446.5 485.943C431.476 488.974 427.387 490.424 412.775 496.047M295.283 559.348C285.402 562.704 275.878 565.758 267.366 568.714C248.779 575.17 235.019 581.164 232.911 588.838M1.19019 568.714C96.3318 655.511 167.793 824.878 237.987 768.1C223.724 696.607 156.396 556.641 1.19019 568.714ZM202.812 721.435C210.355 730 216.872 737.998 222.367 745.236C229.111 754.119 234.316 761.859 237.987 768.1M53.0462 597.625C48.224 594.673 43.3099 591.742 38.304 588.838C26.4484 581.959 14.0775 575.229 1.19019 568.714M267.366 568.714C270.991 556.977 285.129 554.539 295.283 527.101M295.283 559.348C306.283 558.494 314.865 588.838 336.985 576.49M295.283 559.348C309.082 554.661 327.204 547.601 340.612 541.172M412.775 496.047C405.55 498.827 398.589 501.988 392.105 505.592C384.275 509.945 377.14 514.943 371.073 520.699C361.778 529.516 353.512 534.986 340.612 541.172M340.612 541.172C342.046 512.858 355.479 512.467 352.578 488.735M392.105 505.592C392.105 505.592 404.072 505.592 412.775 514.754M412.775 496.047C412.775 496.047 414.225 482.285 422.203 478.169M446.5 485.943C446.5 485.943 462.818 498.748 467.532 490.516M222.367 745.236C208.296 729.769 197.112 681.66 183.593 666.58M202.812 721.435C170.587 720.263 166.187 689.902 121.946 691.731M202.812 721.435C192.517 709.744 180.311 696.997 166.187 683.683M166.187 683.683C160.91 652.534 141.528 650.574 138.989 617.648M166.187 683.683C157.798 675.775 148.733 667.668 138.989 659.463M138.989 659.463C115.227 666.137 116.144 644.629 79.5182 640.513M82.4193 616.601C87.8765 620.318 93.1951 624.051 98.375 627.791C113.02 638.365 126.557 648.993 138.989 659.463M98.375 627.791C86.5157 612.523 99.4629 605.3 82.4193 588.838M82.4193 616.601C82.4193 616.601 71.5404 621.306 59.5736 616.601M53.0462 597.625C58.4814 600.953 63.7999 604.307 69.002 607.682C73.5639 610.641 78.0364 613.616 82.4193 616.601M53.0462 597.625C51.6983 590.976 46.1563 586.551 46.5189 583.35M38.304 588.838C38.304 588.838 34.1895 592.039 29.8379 588.838M69.002 607.682C70.5215 596.446 61.3867 594.325 63.5625 583.35" stroke="#022B00"/>
<defs>
<linearGradient id="paint0_linear_0_1" x1="150.69" y1="939.997" x2="271.19" y2="489.997" gradientUnits="userSpaceOnUse">
<stop offset="0.216346" stop-color="#3A2700"/>
<stop offset="0.653846" stop-color="#0C2C00"/>
<stop offset="1" stop-color="#2A3E00"/>
</linearGradient>
<radialGradient id="paint1_radial_0_1" cx="0" cy="0" r="1" gradientTransform="matrix(-166.6 418.216 268.378 89.683 435.408 185.345)" gradientUnits="userSpaceOnUse">
<stop stop-color="#FF0000" stop-opacity="0.3"/>
<stop offset="0.581731" stop-color="#880000" stop-opacity="0.53"/>
<stop offset="1" stop-color="#344800"/>
</radialGradient>
<radialGradient id="paint2_radial_0_1" cx="0" cy="0" r="1" gradientTransform="matrix(-137.738 413.137 214.614 85.6978 382.052 187.44)" gradientUnits="userSpaceOnUse">
<stop stop-color="#FF0000" stop-opacity="0.74"/>
<stop offset="0.581731" stop-color="#880000" stop-opacity="0.93"/>
<stop offset="1" stop-color="#344800"/>
</radialGradient>
<linearGradient id="paint3_linear_0_1" x1="278.16" y1="15.0021" x2="128.825" y2="462.953" gradientUnits="userSpaceOnUse">
<stop stop-color="#369729" stop-opacity="0.59"/>
<stop offset="0.317308" stop-color="#2A6421"/>
<stop offset="0.774038" stop-color="#0A2D00"/>
</linearGradient>
<radialGradient id="paint4_radial_0_1" cx="0" cy="0" r="1" gradientTransform="matrix(20.5 -691 301.526 -47.4013 214.69 256.497)" gradientUnits="userSpaceOnUse">
<stop offset="0.104994" stop-color="#0D2E01"/>
<stop offset="0.418269" stop-color="#880000" stop-opacity="0.93"/>
<stop offset="1" stop-color="#FF0000" stop-opacity="0.74"/>
</radialGradient>
<radialGradient id="paint5_radial_0_1" cx="0" cy="0" r="1" gradientTransform="matrix(-451 455 350.06 271.264 673.69 67.4971)" gradientUnits="userSpaceOnUse">
<stop stop-color="#CA0000" stop-opacity="0.74"/>
<stop offset="0.484672" stop-color="#721313"/>
<stop offset="1" stop-color="#0E3E00"/>
</radialGradient>
<radialGradient id="paint6_radial_0_1" cx="0" cy="0" r="1" gradientTransform="matrix(77.2401 226.824 -267.807 145.032 231.46 636.855)" gradientUnits="userSpaceOnUse">
<stop offset="0.423077" stop-color="#011F00"/>
<stop offset="1" stop-color="#034B00"/>
</radialGradient>
<radialGradient id="paint7_radial_0_1" cx="0" cy="0" r="1" gradientTransform="matrix(77.2401 226.824 -267.807 145.032 231.46 636.855)" gradientUnits="userSpaceOnUse">
<stop offset="0.423077" stop-color="#011F00"/>
<stop offset="1" stop-color="#034B00"/>
</radialGradient>
</defs>
</svg>
